<svg width="40" height="40" viewBox="0 0 40 40" fill="none" xmlns="http://www.w3.org/2000/svg">
<circle cx="20" cy="20" r="20" fill="#E2EBFF"/>
<path d="M14 14.6667V12.6667H15.3333V14.6667H17.3333V16H15.3333V18H14V16H12V14.6667H14ZM16 18.6667V16.6667H18V14.6667H22.6667L23.8867 16H26C26.7333 16 27.3333 16.6 27.3333 17.3333V25.3333C27.3333 26.0667 26.7333 26.6667 26 26.6667H15.3333C14.6 26.6667 14 26.0667 14 25.3333V18.6667H16ZM20.6667 24.6667C22.5067 24.6667 24 23.1733 24 21.3333C24 19.4933 22.5067 18 20.6667 18C18.8267 18 17.3333 19.4933 17.3333 21.3333C17.3333 23.1733 18.8267 24.6667 20.6667 24.6667ZM18.5333 21.3333C18.5333 22.5133 19.4867 23.4667 20.6667 23.4667C21.8467 23.4667 22.8 22.5133 22.8 21.3333C22.8 20.1533 21.8467 19.2 20.6667 19.2C19.4867 19.2 18.5333 20.1533 18.5333 21.3333Z" fill="#3772FF"/>
</svg>
