<svg width="1440" height="200" viewBox="0 0 1440 200" fill="none" xmlns="http://www.w3.org/2000/svg">
<rect width="1440" height="200" fill="#F8F9FE"/>
<path d="M897.1 100.292C920.549 91.9533 962.863 81.411 944.522 105.947C921.597 136.618 881.89 141.421 884.394 128.075C886.898 114.73 904.398 99.8167 927.93 96.5092C946.756 93.8633 941.858 103.306 937.056 108.358C929.781 115.2 911.984 129.007 898.999 129.496C886.013 129.984 896.142 117.881 902.83 111.768" stroke="#FDBF50"/>
<path d="M553.973 110.72C557.941 110.72 561.269 109.736 563.957 107.768C566.661 105.8 568.565 103.136 569.669 99.776L563.093 97.952C562.453 100.032 561.373 101.656 559.853 102.824C558.333 103.992 556.373 104.576 553.973 104.576C550.693 104.576 548.221 103.504 546.557 101.36C544.909 99.2 544.085 96.32 544.085 92.72C544.085 89.12 544.909 86.248 546.557 84.104C548.221 81.944 550.693 80.864 553.973 80.864C556.373 80.864 558.333 81.448 559.853 82.616C561.373 83.768 562.453 85.392 563.093 87.488L569.669 85.664C568.565 82.304 566.661 79.64 563.957 77.672C561.269 75.704 557.941 74.72 553.973 74.72C550.517 74.72 547.533 75.472 545.021 76.976C542.525 78.48 540.597 80.584 539.237 83.288C537.893 85.992 537.221 89.136 537.221 92.72C537.221 96.304 537.893 99.448 539.237 102.152C540.597 104.856 542.525 106.96 545.021 108.464C547.533 109.968 550.517 110.72 553.973 110.72ZM574.954 110H581.53V96.752C581.53 93.744 582.714 91.696 585.082 90.608C585.85 90.24 586.706 90.024 587.65 89.96C588.61 89.88 589.45 89.952 590.17 90.176V84.08C589.002 83.936 587.834 83.968 586.666 84.176C585.498 84.368 584.442 84.752 583.498 85.328C582.89 85.68 582.354 86.104 581.89 86.6C581.442 87.096 581.05 87.648 580.714 88.256V84.08H574.954V110ZM606.314 110.72C608.81 110.72 611.106 110.064 613.202 108.752C615.314 107.44 616.858 105.6 617.834 103.232L611.306 101.36C610.314 103.536 608.522 104.624 605.93 104.624C604.154 104.624 602.754 104.128 601.73 103.136C600.722 102.144 600.098 100.72 599.858 98.864H618.05C618.322 95.728 618.002 93 617.09 90.68C616.178 88.36 614.77 86.56 612.866 85.28C610.962 84 608.65 83.36 605.93 83.36C603.37 83.36 601.106 83.944 599.138 85.112C597.17 86.264 595.626 87.888 594.506 89.984C593.386 92.08 592.826 94.544 592.826 97.376C592.826 99.968 593.394 102.272 594.53 104.288C595.682 106.288 597.266 107.864 599.282 109.016C601.314 110.152 603.658 110.72 606.314 110.72ZM606.218 89.024C607.786 89.024 608.986 89.416 609.818 90.2C610.666 90.984 611.21 92.256 611.45 94.016H600.026C600.714 90.688 602.778 89.024 606.218 89.024ZM630.201 110.72C632.201 110.72 633.881 110.416 635.241 109.808C636.617 109.184 637.881 108.192 639.033 106.832V110H644.745V94.16C644.745 92.976 644.697 91.904 644.601 90.944C644.505 89.984 644.201 89.024 643.689 88.064C642.777 86.336 641.433 85.12 639.657 84.416C637.881 83.712 635.849 83.36 633.561 83.36C630.441 83.36 627.977 84.032 626.169 85.376C624.361 86.72 623.129 88.464 622.473 90.608L628.377 92.48C628.793 91.296 629.521 90.472 630.561 90.008C631.601 89.544 632.601 89.312 633.561 89.312C635.097 89.312 636.241 89.6 636.993 90.176C637.745 90.736 638.185 91.624 638.313 92.84C635.881 93.192 633.737 93.536 631.881 93.872C630.025 94.192 628.473 94.576 627.225 95.024C625.145 95.792 623.681 96.84 622.833 98.168C621.985 99.48 621.561 101.04 621.561 102.848C621.561 104.288 621.889 105.608 622.545 106.808C623.217 107.992 624.193 108.944 625.473 109.664C626.769 110.368 628.345 110.72 630.201 110.72ZM631.593 105.584C630.473 105.584 629.585 105.336 628.929 104.84C628.273 104.328 627.945 103.632 627.945 102.752C627.945 102.096 628.153 101.536 628.569 101.072C628.985 100.592 629.673 100.16 630.633 99.776C631.369 99.504 632.273 99.256 633.345 99.032C634.433 98.792 636.073 98.488 638.265 98.12C638.249 98.744 638.201 99.432 638.121 100.184C638.041 100.92 637.865 101.568 637.593 102.128C637.417 102.496 637.081 102.952 636.585 103.496C636.105 104.04 635.449 104.528 634.617 104.96C633.801 105.376 632.793 105.584 631.593 105.584ZM666.537 110V104.576C665.001 104.784 663.601 104.848 662.337 104.768C661.073 104.688 660.153 104.192 659.577 103.28C659.273 102.8 659.105 102.16 659.073 101.36C659.057 100.544 659.049 99.632 659.049 98.624V89.12H666.537V84.08H659.049V76.88H652.521V84.08H648.105V89.12H652.521V99.008C652.521 100.56 652.537 101.952 652.569 103.184C652.601 104.4 652.937 105.6 653.577 106.784C654.281 108.048 655.305 108.968 656.649 109.544C658.009 110.104 659.545 110.4 661.257 110.432C662.985 110.48 664.745 110.336 666.537 110ZM682.908 110.72C685.404 110.72 687.7 110.064 689.796 108.752C691.908 107.44 693.452 105.6 694.428 103.232L687.9 101.36C686.908 103.536 685.116 104.624 682.524 104.624C680.748 104.624 679.348 104.128 678.324 103.136C677.316 102.144 676.692 100.72 676.452 98.864H694.644C694.916 95.728 694.596 93 693.684 90.68C692.772 88.36 691.364 86.56 689.46 85.28C687.556 84 685.244 83.36 682.524 83.36C679.964 83.36 677.7 83.944 675.732 85.112C673.764 86.264 672.22 87.888 671.1 89.984C669.98 92.08 669.42 94.544 669.42 97.376C669.42 99.968 669.988 102.272 671.124 104.288C672.276 106.288 673.86 107.864 675.876 109.016C677.908 110.152 680.252 110.72 682.908 110.72ZM682.812 89.024C684.38 89.024 685.58 89.416 686.412 90.2C687.26 90.984 687.804 92.256 688.044 94.016H676.62C677.308 90.688 679.372 89.024 682.812 89.024Z" fill="#3772FF"/>
<path d="M716.873 110.72C718.873 110.72 720.553 110.416 721.913 109.808C723.289 109.184 724.553 108.192 725.705 106.832V110H731.417V94.16C731.417 92.976 731.369 91.904 731.273 90.944C731.177 89.984 730.873 89.024 730.361 88.064C729.449 86.336 728.105 85.12 726.329 84.416C724.553 83.712 722.521 83.36 720.233 83.36C717.113 83.36 714.649 84.032 712.841 85.376C711.033 86.72 709.801 88.464 709.145 90.608L715.049 92.48C715.465 91.296 716.193 90.472 717.233 90.008C718.273 89.544 719.273 89.312 720.233 89.312C721.769 89.312 722.913 89.6 723.665 90.176C724.417 90.736 724.857 91.624 724.985 92.84C722.553 93.192 720.409 93.536 718.553 93.872C716.697 94.192 715.145 94.576 713.897 95.024C711.817 95.792 710.353 96.84 709.505 98.168C708.657 99.48 708.233 101.04 708.233 102.848C708.233 104.288 708.561 105.608 709.217 106.808C709.889 107.992 710.865 108.944 712.145 109.664C713.441 110.368 715.017 110.72 716.873 110.72ZM718.265 105.584C717.145 105.584 716.257 105.336 715.601 104.84C714.945 104.328 714.617 103.632 714.617 102.752C714.617 102.096 714.825 101.536 715.241 101.072C715.657 100.592 716.345 100.16 717.305 99.776C718.041 99.504 718.945 99.256 720.017 99.032C721.105 98.792 722.745 98.488 724.937 98.12C724.921 98.744 724.873 99.432 724.793 100.184C724.713 100.92 724.537 101.568 724.265 102.128C724.089 102.496 723.753 102.952 723.257 103.496C722.777 104.04 722.121 104.528 721.289 104.96C720.473 105.376 719.465 105.584 718.265 105.584ZM747.218 121.52H753.794V109.064C754.642 109.592 755.578 110 756.602 110.288C757.642 110.576 758.77 110.72 759.986 110.72C762.37 110.72 764.458 110.12 766.25 108.92C768.042 107.72 769.434 106.088 770.426 104.024C771.434 101.96 771.938 99.632 771.938 97.04C771.938 94.4 771.426 92.056 770.402 90.008C769.394 87.944 767.97 86.32 766.13 85.136C764.29 83.952 762.13 83.36 759.65 83.36C758.306 83.36 757.074 83.552 755.954 83.936C754.85 84.304 753.858 84.832 752.978 85.52V84.08H747.218V121.52ZM758.93 104.912C756.754 104.912 755.218 104.192 754.322 102.752C753.426 101.296 752.978 99.392 752.978 97.04C752.978 94.688 753.418 92.792 754.298 91.352C755.194 89.896 756.658 89.168 758.69 89.168C760.146 89.168 761.338 89.528 762.266 90.248C763.21 90.952 763.906 91.904 764.354 93.104C764.802 94.288 765.026 95.6 765.026 97.04C765.026 98.496 764.81 99.824 764.378 101.024C763.946 102.208 763.282 103.152 762.386 103.856C761.49 104.56 760.338 104.912 758.93 104.912ZM777.219 110H783.795V96.752C783.795 93.744 784.979 91.696 787.347 90.608C788.115 90.24 788.971 90.024 789.915 89.96C790.875 89.88 791.715 89.952 792.435 90.176V84.08C791.267 83.936 790.099 83.968 788.931 84.176C787.763 84.368 786.707 84.752 785.763 85.328C785.155 85.68 784.619 86.104 784.155 86.6C783.707 87.096 783.315 87.648 782.979 88.256V84.08H777.219V110ZM808.196 110.72C810.788 110.72 813.068 110.144 815.036 108.992C817.02 107.824 818.564 106.216 819.668 104.168C820.788 102.104 821.348 99.728 821.348 97.04C821.348 94.368 820.796 92.008 819.692 89.96C818.588 87.896 817.044 86.28 815.06 85.112C813.092 83.944 810.804 83.36 808.196 83.36C805.636 83.36 803.372 83.936 801.404 85.088C799.436 86.24 797.892 87.848 796.772 89.912C795.652 91.96 795.092 94.336 795.092 97.04C795.092 99.712 795.636 102.08 796.724 104.144C797.828 106.192 799.364 107.8 801.332 108.968C803.3 110.136 805.588 110.72 808.196 110.72ZM808.196 104.624C806.164 104.624 804.62 103.944 803.564 102.584C802.524 101.208 802.004 99.36 802.004 97.04C802.004 94.784 802.5 92.96 803.492 91.568C804.5 90.16 806.068 89.456 808.196 89.456C810.26 89.456 811.812 90.144 812.852 91.52C813.908 92.896 814.436 94.736 814.436 97.04C814.436 99.264 813.916 101.088 812.876 102.512C811.852 103.92 810.292 104.624 808.196 104.624ZM827.826 80.48H834.354V74.72H827.826V80.48ZM822.786 121.52H827.202C829.394 121.52 831.13 120.896 832.41 119.648C833.706 118.416 834.354 116.768 834.354 114.704V84.08H827.826V111.536C827.826 112.784 827.546 113.744 826.986 114.416C826.442 115.088 825.426 115.424 823.938 115.424H822.786V121.52ZM853.111 110.72C855.607 110.72 857.903 110.064 859.999 108.752C862.111 107.44 863.655 105.6 864.631 103.232L858.103 101.36C857.111 103.536 855.319 104.624 852.727 104.624C850.951 104.624 849.551 104.128 848.527 103.136C847.519 102.144 846.895 100.72 846.655 98.864H864.847C865.119 95.728 864.799 93 863.887 90.68C862.975 88.36 861.567 86.56 859.663 85.28C857.759 84 855.447 83.36 852.727 83.36C850.167 83.36 847.903 83.944 845.935 85.112C843.967 86.264 842.423 87.888 841.303 89.984C840.183 92.08 839.623 94.544 839.623 97.376C839.623 99.968 840.191 102.272 841.327 104.288C842.479 106.288 844.063 107.864 846.079 109.016C848.111 110.152 850.455 110.72 853.111 110.72ZM853.015 89.024C854.583 89.024 855.783 89.416 856.615 90.2C857.463 90.984 858.007 92.256 858.247 94.016H846.823C847.511 90.688 849.575 89.024 853.015 89.024ZM881.69 110.72C884.698 110.72 887.226 109.976 889.274 108.488C891.322 107 892.714 104.88 893.45 102.128L886.778 100.736C886.394 101.984 885.818 102.944 885.05 103.616C884.282 104.288 883.162 104.624 881.69 104.624C879.722 104.624 878.234 103.928 877.226 102.536C876.234 101.128 875.738 99.296 875.738 97.04C875.738 94.88 876.21 93.08 877.154 91.64C878.114 90.184 879.626 89.456 881.69 89.456C882.89 89.456 883.962 89.832 884.906 90.584C885.866 91.336 886.538 92.384 886.922 93.728L893.45 92C892.874 89.328 891.546 87.224 889.466 85.688C887.402 84.136 884.842 83.36 881.786 83.36C879.146 83.36 876.858 83.952 874.922 85.136C872.986 86.32 871.482 87.944 870.41 90.008C869.354 92.072 868.826 94.416 868.826 97.04C868.826 99.632 869.338 101.96 870.362 104.024C871.386 106.088 872.858 107.72 874.778 108.92C876.698 110.12 879.002 110.72 881.69 110.72ZM913.803 110V104.576C912.267 104.784 910.867 104.848 909.603 104.768C908.339 104.688 907.419 104.192 906.843 103.28C906.539 102.8 906.371 102.16 906.339 101.36C906.323 100.544 906.315 99.632 906.315 98.624V89.12H913.803V84.08H906.315V76.88H899.787V84.08H895.371V89.12H899.787V99.008C899.787 100.56 899.803 101.952 899.835 103.184C899.867 104.4 900.203 105.6 900.843 106.784C901.547 108.048 902.571 108.968 903.915 109.544C905.275 110.104 906.811 110.4 908.523 110.432C910.251 110.48 912.011 110.336 913.803 110Z" fill="#070632"/>
<path d="M694.054 24.2631H696.093C695.687 23.2132 695.065 22.2253 694.21 21.3788C692.798 19.9763 691.007 19.186 689.163 19V19.4068C689.165 22.0858 691.358 24.2631 694.054 24.2631Z" fill="#3772FF"/>
<path d="M682.588 25.9368H680.102C679.702 28.4589 680.473 31.1302 682.432 33.075C683.844 34.4775 685.635 35.2678 687.479 35.4538V30.7931C687.477 28.116 685.284 25.9368 682.588 25.9368Z" fill="#3772FF"/>
<path d="M694.053 25.9368C690.427 25.9368 687.477 23.0079 687.477 19.4068V19C685.633 19.186 683.842 19.9763 682.43 21.3788C681.577 22.2253 680.953 23.2132 680.547 24.2631H682.586C686.212 24.2631 689.162 27.192 689.162 30.7931V35.4538C691.006 35.2678 692.797 34.4775 694.209 33.075C696.168 31.1302 696.939 28.4608 696.539 25.9368H694.053ZM689.921 25.1135C689.221 25.4331 688.657 25.9949 688.335 26.6884L688.321 26.7019V26.6961L688.312 26.6864C687.99 25.991 687.424 25.4312 686.726 25.1116L686.712 25.098L686.722 25.0883C687.422 24.7687 687.986 24.2069 688.308 23.5135L688.321 23.4999V23.5057L688.331 23.5154C688.653 24.2108 689.219 24.7706 689.917 25.0903L689.931 25.1038L689.921 25.1135Z" fill="#3772FF"/>
<path d="M369.054 108.585H371.093C370.687 107.535 370.065 106.547 369.21 105.701C367.798 104.298 366.007 103.508 364.163 103.322V103.729C364.165 106.408 366.358 108.585 369.054 108.585Z" fill="#FDBF50"/>
<path d="M357.588 110.259H355.102C354.702 112.781 355.473 115.452 357.432 117.397C358.844 118.799 360.635 119.59 362.479 119.776V115.115C362.477 112.438 360.284 110.259 357.588 110.259Z" fill="#FDBF50"/>
<path d="M369.507 109.937C365.88 109.937 362.93 107.008 362.93 103.407V103C361.086 103.186 359.295 103.976 357.883 105.379C357.03 106.225 356.406 107.213 356 108.263H358.039C361.666 108.263 364.615 111.192 364.615 114.793V119.454C366.459 119.268 368.25 118.477 369.663 117.075C371.621 115.13 372.392 112.461 371.992 109.937H369.507ZM365.374 109.114C364.674 109.433 364.11 109.995 363.788 110.688L363.775 110.702V110.696L363.765 110.686C363.443 109.991 362.877 109.431 362.179 109.112L362.165 109.098L362.175 109.088C362.875 108.769 363.439 108.207 363.761 107.513L363.775 107.5V107.506L363.784 107.515C364.106 108.211 364.672 108.771 365.37 109.09L365.384 109.104L365.374 109.114Z" fill="#FDBF50"/>
<path d="M1094.05 116.263H1096.09C1095.69 115.213 1095.06 114.225 1094.21 113.379C1092.8 111.976 1091.01 111.186 1089.16 111V111.407C1089.17 114.086 1091.36 116.263 1094.05 116.263Z" fill="#FD9790"/>
<path d="M1082.59 117.937H1080.1C1079.7 120.459 1080.47 123.13 1082.43 125.075C1083.84 126.477 1085.64 127.268 1087.48 127.454V122.793C1087.48 120.116 1085.28 117.937 1082.59 117.937Z" fill="#FD9790"/>
<path d="M1094.05 117.937C1090.43 117.937 1087.48 115.008 1087.48 111.407V111C1085.63 111.186 1083.84 111.976 1082.43 113.379C1081.58 114.225 1080.95 115.213 1080.55 116.263H1082.59C1086.21 116.263 1089.16 119.192 1089.16 122.793V127.454C1091.01 127.268 1092.8 126.477 1094.21 125.075C1096.17 123.13 1096.94 120.461 1096.54 117.937H1094.05ZM1089.92 117.114C1089.22 117.433 1088.66 117.995 1088.34 118.688L1088.32 118.702V118.696L1088.31 118.686C1087.99 117.991 1087.42 117.431 1086.73 117.112L1086.71 117.098L1086.72 117.088C1087.42 116.769 1087.99 116.207 1088.31 115.513L1088.32 115.5V115.506L1088.33 115.515C1088.65 116.211 1089.22 116.771 1089.92 117.09L1089.93 117.104L1089.92 117.114Z" fill="#FD9790"/>
<path d="M560.764 153H567.412V151.872H561.94V141.48H560.764V153ZM572.432 153.24C573.27 153.24 574.019 153.035 574.68 152.624C575.347 152.213 575.851 151.629 576.192 150.872L575.096 150.448C574.547 151.557 573.643 152.112 572.384 152.112C571.52 152.112 570.843 151.843 570.352 151.304C569.867 150.765 569.6 150 569.552 149.008H576.36C576.403 147.483 576.07 146.288 575.36 145.424C574.656 144.555 573.664 144.12 572.384 144.12C571.552 144.12 570.83 144.307 570.216 144.68C569.608 145.053 569.136 145.584 568.8 146.272C568.464 146.96 568.296 147.776 568.296 148.72C568.296 149.632 568.464 150.427 568.8 151.104C569.142 151.781 569.622 152.307 570.24 152.68C570.864 153.053 571.595 153.24 572.432 153.24ZM572.416 145.2C574.043 145.2 574.947 146.141 575.128 148.024H569.576C569.667 147.112 569.955 146.413 570.44 145.928C570.926 145.443 571.584 145.2 572.416 145.2ZM582.84 153V151.968C582.221 152.069 581.701 152.085 581.28 152.016C580.864 151.947 580.56 151.733 580.368 151.376C580.266 151.189 580.21 150.976 580.2 150.736C580.194 150.491 580.192 150.187 580.192 149.824V145.368H582.84V144.36H580.192V141.96H579.024V144.36H577.176V145.368H579.024V149.872C579.024 150.293 579.029 150.669 579.04 151C579.056 151.331 579.141 151.653 579.296 151.968C579.488 152.352 579.768 152.635 580.136 152.816C580.509 152.997 580.93 153.099 581.4 153.12C581.874 153.141 582.354 153.101 582.84 153ZM584.542 144.84C584.958 144.92 585.289 144.837 585.534 144.592C585.785 144.347 585.91 143.979 585.91 143.488V141.48H584.542V143.168H585.27C585.286 143.467 585.259 143.728 585.19 143.952C585.121 144.176 584.929 144.277 584.614 144.256L584.542 144.84ZM590.032 153.232C591.093 153.232 591.925 153 592.528 152.536C593.136 152.067 593.44 151.424 593.44 150.608C593.44 150.16 593.344 149.784 593.152 149.48C592.965 149.176 592.642 148.912 592.184 148.688C591.73 148.464 591.106 148.251 590.312 148.048C589.634 147.877 589.112 147.72 588.744 147.576C588.381 147.432 588.13 147.28 587.992 147.12C587.853 146.955 587.784 146.757 587.784 146.528C587.784 146.117 587.976 145.789 588.36 145.544C588.744 145.299 589.242 145.181 589.856 145.192C590.506 145.203 591.042 145.357 591.464 145.656C591.885 145.949 592.138 146.349 592.224 146.856L593.424 146.64C593.365 146.139 593.178 145.699 592.864 145.32C592.549 144.941 592.133 144.648 591.616 144.44C591.104 144.227 590.522 144.12 589.872 144.12C589.221 144.12 588.648 144.224 588.152 144.432C587.661 144.635 587.277 144.923 587 145.296C586.728 145.664 586.592 146.093 586.592 146.584C586.592 146.984 586.682 147.325 586.863 147.608C587.05 147.885 587.368 148.133 587.816 148.352C588.264 148.565 588.877 148.779 589.656 148.992C590.386 149.189 590.933 149.36 591.296 149.504C591.664 149.648 591.909 149.805 592.032 149.976C592.154 150.141 592.216 150.357 592.216 150.624C592.216 151.093 592.026 151.467 591.648 151.744C591.269 152.021 590.752 152.16 590.095 152.16C589.424 152.16 588.858 152.016 588.4 151.728C587.941 151.435 587.65 151.043 587.528 150.552L586.328 150.752C586.477 151.531 586.877 152.139 587.528 152.576C588.184 153.013 589.018 153.232 590.032 153.232ZM602.001 153.24C602.86 153.24 603.596 153.04 604.209 152.64C604.828 152.235 605.3 151.648 605.625 150.88L604.441 150.528C604.004 151.584 603.19 152.112 602.001 152.112C601.073 152.112 600.374 151.8 599.905 151.176C599.436 150.547 599.196 149.715 599.185 148.68C599.196 147.672 599.428 146.848 599.881 146.208C600.34 145.568 601.046 145.248 602.001 145.248C602.566 145.248 603.068 145.392 603.505 145.68C603.948 145.963 604.27 146.363 604.473 146.88L605.625 146.512C605.385 145.771 604.94 145.187 604.289 144.76C603.644 144.333 602.884 144.12 602.009 144.12C601.15 144.12 600.42 144.312 599.817 144.696C599.214 145.075 598.753 145.608 598.433 146.296C598.113 146.979 597.948 147.773 597.937 148.68C597.948 149.565 598.108 150.352 598.417 151.04C598.732 151.728 599.19 152.267 599.793 152.656C600.396 153.045 601.132 153.24 602.001 153.24ZM607.276 153H608.452V148.688C608.452 148.171 608.511 147.656 608.628 147.144C608.751 146.627 609.028 146.197 609.46 145.856C609.775 145.6 610.116 145.453 610.484 145.416C610.858 145.373 611.204 145.389 611.524 145.464V144.36C611.146 144.264 610.716 144.261 610.236 144.352C609.756 144.437 609.346 144.629 609.004 144.928C608.748 145.12 608.524 145.387 608.332 145.728V144.36H607.276V153ZM616.542 153.24C617.379 153.24 618.128 153.035 618.79 152.624C619.456 152.213 619.96 151.629 620.302 150.872L619.206 150.448C618.656 151.557 617.752 152.112 616.494 152.112C615.63 152.112 614.952 151.843 614.462 151.304C613.976 150.765 613.71 150 613.662 149.008H620.47C620.512 147.483 620.179 146.288 619.47 145.424C618.766 144.555 617.774 144.12 616.494 144.12C615.662 144.12 614.939 144.307 614.326 144.68C613.718 145.053 613.246 145.584 612.91 146.272C612.574 146.96 612.406 147.776 612.406 148.72C612.406 149.632 612.574 150.427 612.91 151.104C613.251 151.781 613.731 152.307 614.35 152.68C614.974 153.053 615.704 153.24 616.542 153.24ZM616.526 145.2C618.152 145.2 619.056 146.141 619.238 148.024H613.686C613.776 147.112 614.064 146.413 614.55 145.928C615.035 145.443 615.694 145.2 616.526 145.2ZM624.561 153.24C626.07 153.24 627.166 152.683 627.849 151.568V153H628.897V147.632C628.897 147.312 628.881 146.997 628.849 146.688C628.817 146.379 628.747 146.099 628.641 145.848C628.411 145.288 628.019 144.861 627.465 144.568C626.915 144.269 626.246 144.12 625.457 144.12C624.507 144.12 623.734 144.333 623.137 144.76C622.539 145.187 622.139 145.787 621.937 146.56L623.081 146.896C623.246 146.32 623.531 145.899 623.937 145.632C624.347 145.365 624.849 145.232 625.441 145.232C626.262 145.232 626.849 145.424 627.201 145.808C627.553 146.187 627.734 146.765 627.745 147.544C627.361 147.597 626.937 147.653 626.473 147.712C626.014 147.771 625.553 147.837 625.089 147.912C624.625 147.987 624.198 148.072 623.809 148.168C623.163 148.339 622.635 148.624 622.225 149.024C621.814 149.419 621.609 149.971 621.609 150.68C621.609 151.139 621.718 151.563 621.937 151.952C622.155 152.341 622.483 152.653 622.921 152.888C623.363 153.123 623.91 153.24 624.561 153.24ZM624.697 152.224C624.233 152.224 623.859 152.149 623.577 152C623.299 151.845 623.097 151.651 622.969 151.416C622.846 151.176 622.785 150.931 622.785 150.68C622.785 150.211 622.942 149.859 623.257 149.624C623.571 149.389 623.913 149.219 624.281 149.112C624.755 148.984 625.307 148.88 625.937 148.8C626.566 148.72 627.163 148.645 627.729 148.576C627.729 148.773 627.721 149 627.705 149.256C627.694 149.507 627.665 149.739 627.617 149.952C627.505 150.603 627.195 151.144 626.689 151.576C626.187 152.008 625.523 152.224 624.697 152.224ZM635.683 153V151.968C635.065 152.069 634.545 152.085 634.123 152.016C633.707 151.947 633.403 151.733 633.211 151.376C633.11 151.189 633.054 150.976 633.043 150.736C633.038 150.491 633.035 150.187 633.035 149.824V145.368H635.683V144.36H633.035V141.96H631.867V144.36H630.019V145.368H631.867V149.872C631.867 150.293 631.873 150.669 631.883 151C631.899 151.331 631.985 151.653 632.139 151.968C632.331 152.352 632.611 152.635 632.979 152.816C633.353 152.997 633.774 153.099 634.243 153.12C634.718 153.141 635.198 153.101 635.683 153ZM640.729 153.24C641.566 153.24 642.316 153.035 642.977 152.624C643.644 152.213 644.148 151.629 644.489 150.872L643.393 150.448C642.844 151.557 641.94 152.112 640.681 152.112C639.817 152.112 639.14 151.843 638.649 151.304C638.164 150.765 637.897 150 637.849 149.008H644.657C644.7 147.483 644.366 146.288 643.657 145.424C642.953 144.555 641.961 144.12 640.681 144.12C639.849 144.12 639.126 144.307 638.513 144.68C637.905 145.053 637.433 145.584 637.097 146.272C636.761 146.96 636.593 147.776 636.593 148.72C636.593 149.632 636.761 150.427 637.097 151.104C637.438 151.781 637.918 152.307 638.537 152.68C639.161 153.053 639.892 153.24 640.729 153.24ZM640.713 145.2C642.34 145.2 643.244 146.141 643.425 148.024H637.873C637.964 147.112 638.252 146.413 638.737 145.928C639.222 145.443 639.881 145.2 640.713 145.2ZM652.86 153.232C653.921 153.232 654.753 153 655.356 152.536C655.964 152.067 656.268 151.424 656.268 150.608C656.268 150.16 656.172 149.784 655.98 149.48C655.793 149.176 655.47 148.912 655.012 148.688C654.558 148.464 653.934 148.251 653.14 148.048C652.462 147.877 651.94 147.72 651.572 147.576C651.209 147.432 650.958 147.28 650.82 147.12C650.681 146.955 650.612 146.757 650.612 146.528C650.612 146.117 650.804 145.789 651.188 145.544C651.572 145.299 652.07 145.181 652.684 145.192C653.334 145.203 653.87 145.357 654.292 145.656C654.713 145.949 654.966 146.349 655.052 146.856L656.252 146.64C656.193 146.139 656.006 145.699 655.692 145.32C655.377 144.941 654.961 144.648 654.444 144.44C653.932 144.227 653.35 144.12 652.7 144.12C652.049 144.12 651.476 144.224 650.98 144.432C650.489 144.635 650.105 144.923 649.828 145.296C649.556 145.664 649.42 146.093 649.42 146.584C649.42 146.984 649.51 147.325 649.692 147.608C649.878 147.885 650.196 148.133 650.644 148.352C651.092 148.565 651.705 148.779 652.484 148.992C653.214 149.189 653.761 149.36 654.124 149.504C654.492 149.648 654.737 149.805 654.86 149.976C654.982 150.141 655.044 150.357 655.044 150.624C655.044 151.093 654.854 151.467 654.476 151.744C654.097 152.021 653.58 152.16 652.924 152.16C652.252 152.16 651.686 152.016 651.228 151.728C650.769 151.435 650.478 151.043 650.356 150.552L649.156 150.752C649.305 151.531 649.705 152.139 650.356 152.576C651.012 153.013 651.846 153.232 652.86 153.232ZM661.65 153.24C662.503 153.24 663.234 153.048 663.842 152.664C664.455 152.28 664.925 151.747 665.25 151.064C665.581 150.376 665.746 149.579 665.746 148.672C665.746 147.781 665.583 146.995 665.258 146.312C664.938 145.624 664.471 145.088 663.858 144.704C663.25 144.315 662.514 144.12 661.65 144.12C660.807 144.12 660.079 144.312 659.466 144.696C658.858 145.075 658.389 145.605 658.058 146.288C657.727 146.971 657.562 147.765 657.562 148.672C657.562 149.563 657.722 150.352 658.042 151.04C658.367 151.728 658.834 152.267 659.442 152.656C660.055 153.045 660.791 153.24 661.65 153.24ZM661.65 152.112C660.717 152.112 660.01 151.8 659.53 151.176C659.05 150.547 658.81 149.712 658.81 148.672C658.81 147.664 659.042 146.843 659.506 146.208C659.97 145.568 660.685 145.248 661.65 145.248C662.605 145.248 663.317 145.56 663.786 146.184C664.261 146.803 664.498 147.632 664.498 148.672C664.498 149.691 664.263 150.52 663.794 151.16C663.325 151.795 662.61 152.112 661.65 152.112ZM667.503 153H668.687V147.424C668.687 146.747 668.871 146.205 669.239 145.8C669.607 145.389 670.089 145.184 670.687 145.184C671.284 145.184 671.764 145.384 672.127 145.784C672.495 146.179 672.679 146.72 672.679 147.408L672.671 153H673.831L673.839 147.424C673.839 146.885 673.937 146.453 674.135 146.128C674.337 145.797 674.593 145.557 674.903 145.408C675.212 145.259 675.529 145.184 675.855 145.184C676.425 145.184 676.895 145.376 677.263 145.76C677.636 146.139 677.823 146.661 677.823 147.328L677.815 153H678.991L678.999 147.104C678.999 146.192 678.737 145.469 678.215 144.936C677.697 144.397 677.001 144.128 676.127 144.128C675.551 144.128 675.033 144.259 674.575 144.52C674.116 144.776 673.761 145.131 673.511 145.584C673.276 145.109 672.937 144.749 672.495 144.504C672.057 144.253 671.556 144.128 670.991 144.128C670.479 144.128 670.012 144.232 669.591 144.44C669.169 144.643 668.825 144.92 668.559 145.272V144.36H667.503V153ZM684.667 153.24C685.504 153.24 686.253 153.035 686.915 152.624C687.581 152.213 688.085 151.629 688.427 150.872L687.331 150.448C686.781 151.557 685.877 152.112 684.619 152.112C683.755 152.112 683.077 151.843 682.587 151.304C682.101 150.765 681.835 150 681.787 149.008H688.595C688.637 147.483 688.304 146.288 687.595 145.424C686.891 144.555 685.899 144.12 684.619 144.12C683.787 144.12 683.064 144.307 682.451 144.68C681.843 145.053 681.371 145.584 681.035 146.272C680.699 146.96 680.531 147.776 680.531 148.72C680.531 149.632 680.699 150.427 681.035 151.104C681.376 151.781 681.856 152.307 682.475 152.68C683.099 153.053 683.829 153.24 684.667 153.24ZM684.651 145.2C686.277 145.2 687.181 146.141 687.363 148.024H681.811C681.901 147.112 682.189 146.413 682.675 145.928C683.16 145.443 683.819 145.2 684.651 145.2ZM695.074 153V151.968C694.455 152.069 693.935 152.085 693.514 152.016C693.098 151.947 692.794 151.733 692.602 151.376C692.501 151.189 692.445 150.976 692.434 150.736C692.429 150.491 692.426 150.187 692.426 149.824V145.368H695.074V144.36H692.426V141.96H691.258V144.36H689.41V145.368H691.258V149.872C691.258 150.293 691.263 150.669 691.274 151C691.29 151.331 691.375 151.653 691.53 151.968C691.722 152.352 692.002 152.635 692.37 152.816C692.743 152.997 693.165 153.099 693.634 153.12C694.109 153.141 694.589 153.101 695.074 153ZM696.768 153H697.952V148.392C697.952 147.416 698.171 146.651 698.608 146.096C699.046 145.541 699.68 145.264 700.512 145.264C701.115 145.264 701.6 145.411 701.968 145.704C702.336 145.992 702.603 146.387 702.768 146.888C702.934 147.389 703.016 147.957 703.016 148.592V153H704.2V148.248C704.2 147.763 704.139 147.277 704.016 146.792C703.899 146.307 703.707 145.864 703.44 145.464C703.174 145.064 702.819 144.744 702.376 144.504C701.934 144.264 701.387 144.144 700.736 144.144C700.118 144.144 699.558 144.264 699.056 144.504C698.56 144.739 698.152 145.091 697.832 145.56V141.48H696.768V153ZM706.436 142.72H707.612V141.4H706.436V142.72ZM706.436 153H707.612V144.36H706.436V153ZM710.003 153H711.187V148.392C711.187 147.416 711.405 146.651 711.843 146.096C712.28 145.541 712.915 145.264 713.747 145.264C714.349 145.264 714.835 145.411 715.203 145.704C715.571 145.992 715.837 146.387 716.003 146.888C716.168 147.389 716.251 147.957 716.251 148.592V153H717.435V148.248C717.435 147.763 717.373 147.277 717.251 146.792C717.133 146.307 716.941 145.864 716.675 145.464C716.408 145.064 716.053 144.744 715.611 144.504C715.168 144.264 714.621 144.144 713.971 144.144C713.352 144.144 712.792 144.264 712.291 144.504C711.795 144.739 711.387 145.091 711.067 145.56V144.36H710.003V153ZM722.863 153.24C723.444 153.24 723.961 153.128 724.415 152.904C724.868 152.68 725.249 152.371 725.559 151.976V152.864C725.564 153.877 725.364 154.643 724.959 155.16C724.553 155.677 723.881 155.936 722.943 155.936C722.489 155.936 722.044 155.829 721.607 155.616C721.169 155.408 720.833 155.064 720.599 154.584L719.535 155.176C719.903 155.848 720.396 156.333 721.015 156.632C721.639 156.931 722.281 157.08 722.943 157.08C723.999 157.08 724.841 156.851 725.471 156.392C726.1 155.933 726.492 155.221 726.647 154.256C726.684 154.037 726.708 153.813 726.719 153.584C726.735 153.36 726.743 153.125 726.743 152.88V144.36H725.695V145.552C725.38 145.104 724.98 144.755 724.495 144.504C724.015 144.248 723.455 144.12 722.815 144.12C722.025 144.12 721.348 144.32 720.783 144.72C720.217 145.12 719.783 145.664 719.479 146.352C719.18 147.04 719.031 147.813 719.031 148.672C719.031 149.536 719.18 150.312 719.479 151C719.783 151.688 720.22 152.235 720.791 152.64C721.367 153.04 722.057 153.24 722.863 153.24ZM722.983 152.144C722.385 152.144 721.884 151.992 721.479 151.688C721.079 151.379 720.777 150.963 720.575 150.44C720.377 149.917 720.279 149.328 720.279 148.672C720.279 148.021 720.377 147.435 720.575 146.912C720.772 146.389 721.071 145.976 721.471 145.672C721.876 145.368 722.388 145.216 723.007 145.216C723.908 145.216 724.58 145.539 725.023 146.184C725.471 146.824 725.695 147.653 725.695 148.672C725.695 149.339 725.596 149.933 725.399 150.456C725.201 150.979 724.903 151.392 724.503 151.696C724.103 151.995 723.596 152.144 722.983 152.144ZM736.887 153V151.968C736.268 152.069 735.748 152.085 735.327 152.016C734.911 151.947 734.607 151.733 734.415 151.376C734.313 151.189 734.257 150.976 734.247 150.736C734.241 150.491 734.239 150.187 734.239 149.824V145.368H736.887V144.36H734.239V141.96H733.071V144.36H731.223V145.368H733.071V149.872C733.071 150.293 733.076 150.669 733.087 151C733.103 151.331 733.188 151.653 733.343 151.968C733.535 152.352 733.815 152.635 734.183 152.816C734.556 152.997 734.977 153.099 735.447 153.12C735.921 153.141 736.401 153.101 736.887 153ZM741.884 153.24C742.738 153.24 743.468 153.048 744.076 152.664C744.69 152.28 745.159 151.747 745.484 151.064C745.815 150.376 745.98 149.579 745.98 148.672C745.98 147.781 745.818 146.995 745.492 146.312C745.172 145.624 744.706 145.088 744.092 144.704C743.484 144.315 742.748 144.12 741.884 144.12C741.042 144.12 740.314 144.312 739.7 144.696C739.092 145.075 738.623 145.605 738.292 146.288C737.962 146.971 737.796 147.765 737.796 148.672C737.796 149.563 737.956 150.352 738.276 151.04C738.602 151.728 739.068 152.267 739.676 152.656C740.29 153.045 741.026 153.24 741.884 153.24ZM741.884 152.112C740.951 152.112 740.244 151.8 739.764 151.176C739.284 150.547 739.044 149.712 739.044 148.672C739.044 147.664 739.276 146.843 739.74 146.208C740.204 145.568 740.919 145.248 741.884 145.248C742.839 145.248 743.551 145.56 744.02 146.184C744.495 146.803 744.732 147.632 744.732 148.672C744.732 149.691 744.498 150.52 744.028 151.16C743.559 151.795 742.844 152.112 741.884 152.112ZM754.172 153.232C755.233 153.232 756.065 153 756.668 152.536C757.276 152.067 757.58 151.424 757.58 150.608C757.58 150.16 757.484 149.784 757.292 149.48C757.105 149.176 756.783 148.912 756.324 148.688C755.871 148.464 755.247 148.251 754.452 148.048C753.775 147.877 753.252 147.72 752.884 147.576C752.521 147.432 752.271 147.28 752.132 147.12C751.993 146.955 751.924 146.757 751.924 146.528C751.924 146.117 752.116 145.789 752.5 145.544C752.884 145.299 753.383 145.181 753.996 145.192C754.647 145.203 755.183 145.357 755.604 145.656C756.025 145.949 756.279 146.349 756.364 146.856L757.564 146.64C757.505 146.139 757.319 145.699 757.004 145.32C756.689 144.941 756.273 144.648 755.756 144.44C755.244 144.227 754.663 144.12 754.012 144.12C753.361 144.12 752.788 144.224 752.292 144.432C751.801 144.635 751.417 144.923 751.14 145.296C750.868 145.664 750.732 146.093 750.732 146.584C750.732 146.984 750.823 147.325 751.004 147.608C751.191 147.885 751.508 148.133 751.956 148.352C752.404 148.565 753.017 148.779 753.796 148.992C754.527 149.189 755.073 149.36 755.436 149.504C755.804 149.648 756.049 149.805 756.172 149.976C756.295 150.141 756.356 150.357 756.356 150.624C756.356 151.093 756.167 151.467 755.788 151.744C755.409 152.021 754.892 152.16 754.236 152.16C753.564 152.16 752.999 152.016 752.54 151.728C752.081 151.435 751.791 151.043 751.668 150.552L750.468 150.752C750.617 151.531 751.017 152.139 751.668 152.576C752.324 153.013 753.159 153.232 754.172 153.232ZM759.346 153H760.53V148.392C760.53 147.416 760.749 146.651 761.186 146.096C761.624 145.541 762.258 145.264 763.09 145.264C763.693 145.264 764.178 145.411 764.546 145.704C764.914 145.992 765.181 146.387 765.346 146.888C765.512 147.389 765.594 147.957 765.594 148.592V153H766.778V148.248C766.778 147.763 766.717 147.277 766.594 146.792C766.477 146.307 766.285 145.864 766.018 145.464C765.752 145.064 765.397 144.744 764.954 144.504C764.512 144.264 763.965 144.144 763.314 144.144C762.696 144.144 762.136 144.264 761.634 144.504C761.138 144.739 760.73 145.091 760.41 145.56V141.48H759.346V153ZM771.326 153.24C772.836 153.24 773.932 152.683 774.614 151.568V153H775.662V147.632C775.662 147.312 775.646 146.997 775.614 146.688C775.582 146.379 775.513 146.099 775.406 145.848C775.177 145.288 774.785 144.861 774.23 144.568C773.681 144.269 773.012 144.12 772.222 144.12C771.273 144.12 770.5 144.333 769.902 144.76C769.305 145.187 768.905 145.787 768.702 146.56L769.846 146.896C770.012 146.32 770.297 145.899 770.702 145.632C771.113 145.365 771.614 145.232 772.206 145.232C773.028 145.232 773.614 145.424 773.966 145.808C774.318 146.187 774.5 146.765 774.51 147.544C774.126 147.597 773.702 147.653 773.238 147.712C772.78 147.771 772.318 147.837 771.854 147.912C771.39 147.987 770.964 148.072 770.574 148.168C769.929 148.339 769.401 148.624 768.99 149.024C768.58 149.419 768.374 149.971 768.374 150.68C768.374 151.139 768.484 151.563 768.702 151.952C768.921 152.341 769.249 152.653 769.686 152.888C770.129 153.123 770.676 153.24 771.326 153.24ZM771.462 152.224C770.998 152.224 770.625 152.149 770.342 152C770.065 151.845 769.862 151.651 769.734 151.416C769.612 151.176 769.55 150.931 769.55 150.68C769.55 150.211 769.708 149.859 770.022 149.624C770.337 149.389 770.678 149.219 771.046 149.112C771.521 148.984 772.073 148.88 772.702 148.8C773.332 148.72 773.929 148.645 774.494 148.576C774.494 148.773 774.486 149 774.47 149.256C774.46 149.507 774.43 149.739 774.382 149.952C774.27 150.603 773.961 151.144 773.454 151.576C772.953 152.008 772.289 152.224 771.462 152.224ZM777.745 153H778.921V148.688C778.921 148.171 778.98 147.656 779.097 147.144C779.22 146.627 779.497 146.197 779.929 145.856C780.244 145.6 780.585 145.453 780.953 145.416C781.326 145.373 781.673 145.389 781.993 145.464V144.36C781.614 144.264 781.185 144.261 780.705 144.352C780.225 144.437 779.814 144.629 779.473 144.928C779.217 145.12 778.993 145.387 778.801 145.728V144.36H777.745V153ZM787.01 153.24C787.848 153.24 788.597 153.035 789.258 152.624C789.925 152.213 790.429 151.629 790.77 150.872L789.674 150.448C789.125 151.557 788.221 152.112 786.962 152.112C786.098 152.112 785.421 151.843 784.93 151.304C784.445 150.765 784.178 150 784.13 149.008H790.938C790.981 147.483 790.648 146.288 789.938 145.424C789.234 144.555 788.242 144.12 786.962 144.12C786.13 144.12 785.408 144.307 784.794 144.68C784.186 145.053 783.714 145.584 783.378 146.272C783.042 146.96 782.874 147.776 782.874 148.72C782.874 149.632 783.042 150.427 783.378 151.104C783.72 151.781 784.2 152.307 784.818 152.68C785.442 153.053 786.173 153.24 787.01 153.24ZM786.994 145.2C788.621 145.2 789.525 146.141 789.706 148.024H784.154C784.245 147.112 784.533 146.413 785.018 145.928C785.504 145.443 786.162 145.2 786.994 145.2ZM797.757 153H798.781L800.933 146.12L803.093 153H804.117L806.757 144.36H805.589L803.525 151.072L801.469 144.36H800.397L798.341 151.072L796.293 144.36L795.117 144.352L797.757 153ZM808.358 142.72H809.534V141.4H808.358V142.72ZM808.358 153H809.534V144.36H808.358V153ZM816.637 153V151.968C816.018 152.069 815.498 152.085 815.077 152.016C814.661 151.947 814.357 151.733 814.165 151.376C814.063 151.189 814.007 150.976 813.997 150.736C813.991 150.491 813.989 150.187 813.989 149.824V145.368H816.637V144.36H813.989V141.96H812.821V144.36H810.973V145.368H812.821V149.872C812.821 150.293 812.826 150.669 812.837 151C812.853 151.331 812.938 151.653 813.093 151.968C813.285 152.352 813.565 152.635 813.933 152.816C814.306 152.997 814.727 153.099 815.197 153.12C815.671 153.141 816.151 153.101 816.637 153ZM818.331 153H819.515V148.392C819.515 147.416 819.733 146.651 820.171 146.096C820.608 145.541 821.243 145.264 822.075 145.264C822.677 145.264 823.163 145.411 823.531 145.704C823.899 145.992 824.165 146.387 824.331 146.888C824.496 147.389 824.579 147.957 824.579 148.592V153H825.763V148.248C825.763 147.763 825.701 147.277 825.579 146.792C825.461 146.307 825.269 145.864 825.003 145.464C824.736 145.064 824.381 144.744 823.939 144.504C823.496 144.264 822.949 144.144 822.299 144.144C821.68 144.144 821.12 144.264 820.619 144.504C820.123 144.739 819.715 145.091 819.395 145.56V141.48H818.331V153ZM834.65 153.24C835.503 153.24 836.234 153.048 836.842 152.664C837.455 152.28 837.925 151.747 838.25 151.064C838.581 150.376 838.746 149.579 838.746 148.672C838.746 147.781 838.583 146.995 838.258 146.312C837.938 145.624 837.471 145.088 836.858 144.704C836.25 144.315 835.514 144.12 834.65 144.12C833.807 144.12 833.079 144.312 832.466 144.696C831.858 145.075 831.389 145.605 831.058 146.288C830.727 146.971 830.562 147.765 830.562 148.672C830.562 149.563 830.722 150.352 831.042 151.04C831.367 151.728 831.834 152.267 832.442 152.656C833.055 153.045 833.791 153.24 834.65 153.24ZM834.65 152.112C833.717 152.112 833.01 151.8 832.53 151.176C832.05 150.547 831.81 149.712 831.81 148.672C831.81 147.664 832.042 146.843 832.506 146.208C832.97 145.568 833.685 145.248 834.65 145.248C835.605 145.248 836.317 145.56 836.786 146.184C837.261 146.803 837.498 147.632 837.498 148.672C837.498 149.691 837.263 150.52 836.794 151.16C836.325 151.795 835.61 152.112 834.65 152.112ZM845.215 153V151.968C844.596 152.069 844.076 152.085 843.655 152.016C843.239 151.947 842.935 151.733 842.743 151.376C842.641 151.189 842.585 150.976 842.575 150.736C842.569 150.491 842.567 150.187 842.567 149.824V145.368H845.215V144.36H842.567V141.96H841.399V144.36H839.551V145.368H841.399V149.872C841.399 150.293 841.404 150.669 841.415 151C841.431 151.331 841.516 151.653 841.671 151.968C841.863 152.352 842.143 152.635 842.511 152.816C842.884 152.997 843.305 153.099 843.775 153.12C844.249 153.141 844.729 153.101 845.215 153ZM846.909 153H848.093V148.392C848.093 147.416 848.312 146.651 848.749 146.096C849.186 145.541 849.821 145.264 850.653 145.264C851.256 145.264 851.741 145.411 852.109 145.704C852.477 145.992 852.744 146.387 852.909 146.888C853.074 147.389 853.157 147.957 853.157 148.592V153H854.341V148.248C854.341 147.763 854.28 147.277 854.157 146.792C854.04 146.307 853.848 145.864 853.581 145.464C853.314 145.064 852.96 144.744 852.517 144.504C852.074 144.264 851.528 144.144 850.877 144.144C850.258 144.144 849.698 144.264 849.197 144.504C848.701 144.739 848.293 145.091 847.973 145.56V141.48H846.909V153ZM860.073 153.24C860.91 153.24 861.66 153.035 862.321 152.624C862.988 152.213 863.492 151.629 863.833 150.872L862.737 150.448C862.188 151.557 861.284 152.112 860.025 152.112C859.161 152.112 858.484 151.843 857.993 151.304C857.508 150.765 857.241 150 857.193 149.008H864.001C864.044 147.483 863.71 146.288 863.001 145.424C862.297 144.555 861.305 144.12 860.025 144.12C859.193 144.12 858.47 144.307 857.857 144.68C857.249 145.053 856.777 145.584 856.441 146.272C856.105 146.96 855.937 147.776 855.937 148.72C855.937 149.632 856.105 150.427 856.441 151.104C856.782 151.781 857.262 152.307 857.881 152.68C858.505 153.053 859.236 153.24 860.073 153.24ZM860.057 145.2C861.684 145.2 862.588 146.141 862.769 148.024H857.217C857.308 147.112 857.596 146.413 858.081 145.928C858.566 145.443 859.225 145.2 860.057 145.2ZM865.776 153H866.952V148.688C866.952 148.171 867.011 147.656 867.128 147.144C867.251 146.627 867.528 146.197 867.96 145.856C868.275 145.6 868.616 145.453 868.984 145.416C869.358 145.373 869.704 145.389 870.024 145.464V144.36C869.646 144.264 869.216 144.261 868.736 144.352C868.256 144.437 867.846 144.629 867.504 144.928C867.248 145.12 867.024 145.387 866.832 145.728V144.36H865.776V153ZM874.453 153.232C875.515 153.232 876.347 153 876.949 152.536C877.557 152.067 877.861 151.424 877.861 150.608C877.861 150.16 877.765 149.784 877.573 149.48C877.387 149.176 877.064 148.912 876.605 148.688C876.152 148.464 875.528 148.251 874.733 148.048C874.056 147.877 873.533 147.72 873.165 147.576C872.803 147.432 872.552 147.28 872.413 147.12C872.275 146.955 872.205 146.757 872.205 146.528C872.205 146.117 872.397 145.789 872.781 145.544C873.165 145.299 873.664 145.181 874.277 145.192C874.928 145.203 875.464 145.357 875.885 145.656C876.307 145.949 876.56 146.349 876.645 146.856L877.845 146.64C877.787 146.139 877.6 145.699 877.285 145.32C876.971 144.941 876.555 144.648 876.037 144.44C875.525 144.227 874.944 144.12 874.293 144.12C873.643 144.12 873.069 144.224 872.573 144.432C872.083 144.635 871.699 144.923 871.421 145.296C871.149 145.664 871.013 146.093 871.013 146.584C871.013 146.984 871.104 147.325 871.285 147.608C871.472 147.885 871.789 148.133 872.237 148.352C872.685 148.565 873.299 148.779 874.077 148.992C874.808 149.189 875.355 149.36 875.717 149.504C876.085 149.648 876.331 149.805 876.453 149.976C876.576 150.141 876.637 150.357 876.637 150.624C876.637 151.093 876.448 151.467 876.069 151.744C875.691 152.021 875.173 152.16 874.517 152.16C873.845 152.16 873.28 152.016 872.821 151.728C872.363 151.435 872.072 151.043 871.949 150.552L870.749 150.752C870.899 151.531 871.299 152.139 871.949 152.576C872.605 153.013 873.44 153.232 874.453 153.232Z" fill="#5C5C8B"/>
</svg>
