<svg width="1440" height="200" viewBox="0 0 1440 200" fill="none" xmlns="http://www.w3.org/2000/svg">
<rect width="1440" height="200" fill="#F8F9FE"/>
<path d="M897.1 100.292C920.549 91.9533 962.863 81.411 944.522 105.947C921.597 136.618 881.89 141.421 884.394 128.075C886.898 114.73 904.398 99.8167 927.93 96.5092C946.756 93.8633 941.858 103.306 937.056 108.358C929.781 115.2 911.984 129.007 898.999 129.496C886.013 129.984 896.142 117.881 902.83 111.768" stroke="#FDBF50"/>
<path d="M450.91 110H472.318V103.904H457.438V75.44H450.91V110ZM488.447 110.72C490.943 110.72 493.239 110.064 495.335 108.752C497.447 107.44 498.991 105.6 499.967 103.232L493.439 101.36C492.447 103.536 490.655 104.624 488.063 104.624C486.287 104.624 484.887 104.128 483.863 103.136C482.855 102.144 482.231 100.72 481.991 98.864H500.183C500.455 95.728 500.135 93 499.223 90.68C498.311 88.36 496.903 86.56 494.999 85.28C493.095 84 490.783 83.36 488.063 83.36C485.503 83.36 483.239 83.944 481.271 85.112C479.303 86.264 477.759 87.888 476.639 89.984C475.519 92.08 474.959 94.544 474.959 97.376C474.959 99.968 475.527 102.272 476.663 104.288C477.815 106.288 479.399 107.864 481.415 109.016C483.447 110.152 485.791 110.72 488.447 110.72ZM488.351 89.024C489.919 89.024 491.119 89.416 491.951 90.2C492.799 90.984 493.343 92.256 493.583 94.016H482.159C482.847 90.688 484.911 89.024 488.351 89.024ZM521.154 110V104.576C519.618 104.784 518.218 104.848 516.954 104.768C515.69 104.688 514.77 104.192 514.194 103.28C513.89 102.8 513.722 102.16 513.69 101.36C513.674 100.544 513.666 99.632 513.666 98.624V89.12H521.154V84.08H513.666V76.88H507.138V84.08H502.722V89.12H507.138V99.008C507.138 100.56 507.154 101.952 507.186 103.184C507.218 104.4 507.554 105.6 508.194 106.784C508.898 108.048 509.922 108.968 511.266 109.544C512.626 110.104 514.162 110.4 515.874 110.432C517.602 110.48 519.362 110.336 521.154 110ZM526.45 84.08H532.978V75.44H526.45V84.08ZM546.48 110.72C549.872 110.72 552.528 109.96 554.448 108.44C556.368 106.92 557.328 104.832 557.328 102.176C557.328 100.16 556.704 98.568 555.456 97.4C554.224 96.232 552.128 95.264 549.168 94.496C547.152 93.984 545.648 93.568 544.656 93.248C543.68 92.928 543.032 92.616 542.712 92.312C542.408 92.008 542.256 91.632 542.256 91.184C542.256 90.432 542.616 89.856 543.336 89.456C544.072 89.056 545.04 88.896 546.24 88.976C548.784 89.168 550.176 90.256 550.416 92.24L557.088 91.04C556.752 88.688 555.6 86.824 553.632 85.448C551.664 84.056 549.152 83.36 546.096 83.36C542.96 83.36 540.456 84.096 538.584 85.568C536.712 87.04 535.776 89.024 535.776 91.52C535.776 93.504 536.424 95.072 537.72 96.224C539.016 97.36 541.248 98.336 544.416 99.152C546.288 99.648 547.664 100.048 548.544 100.352C549.44 100.656 550.016 100.968 550.272 101.288C550.528 101.592 550.656 102 550.656 102.512C550.656 103.328 550.336 103.968 549.696 104.432C549.056 104.88 548.144 105.104 546.96 105.104C545.52 105.104 544.328 104.76 543.384 104.072C542.456 103.384 541.856 102.432 541.584 101.216L534.912 102.224C535.344 104.928 536.56 107.024 538.56 108.512C540.576 109.984 543.216 110.72 546.48 110.72ZM822.722 110H829.346V95.936L841.154 75.44H833.522L826.034 88.448L818.546 75.44H810.914L822.722 95.936V110ZM852.329 110.72C854.921 110.72 857.201 110.144 859.169 108.992C861.153 107.824 862.697 106.216 863.801 104.168C864.921 102.104 865.481 99.728 865.481 97.04C865.481 94.368 864.929 92.008 863.825 89.96C862.721 87.896 861.177 86.28 859.193 85.112C857.225 83.944 854.937 83.36 852.329 83.36C849.769 83.36 847.505 83.936 845.537 85.088C843.569 86.24 842.025 87.848 840.905 89.912C839.785 91.96 839.225 94.336 839.225 97.04C839.225 99.712 839.769 102.08 840.857 104.144C841.961 106.192 843.497 107.8 845.465 108.968C847.433 110.136 849.721 110.72 852.329 110.72ZM852.329 104.624C850.297 104.624 848.753 103.944 847.697 102.584C846.657 101.208 846.137 99.36 846.137 97.04C846.137 94.784 846.633 92.96 847.625 91.568C848.633 90.16 850.201 89.456 852.329 89.456C854.393 89.456 855.945 90.144 856.985 91.52C858.041 92.896 858.569 94.736 858.569 97.04C858.569 99.264 858.049 101.088 857.009 102.512C855.985 103.92 854.425 104.624 852.329 104.624ZM880.406 110.768C882.278 110.768 883.91 110.456 885.302 109.832C886.694 109.208 887.862 108.376 888.806 107.336V110H894.566V84.08H887.99V97.232C887.99 98.832 887.806 100.128 887.438 101.12C887.086 102.096 886.63 102.84 886.07 103.352C885.51 103.848 884.91 104.184 884.27 104.36C883.63 104.536 883.03 104.624 882.47 104.624C881.078 104.624 879.998 104.312 879.23 103.688C878.478 103.064 877.934 102.288 877.598 101.36C877.262 100.432 877.062 99.512 876.998 98.6C876.934 97.672 876.902 96.912 876.902 96.32V84.08H870.278V98.624C870.278 99.056 870.31 99.744 870.374 100.688C870.438 101.632 870.622 102.68 870.926 103.832C871.23 104.968 871.734 106.064 872.438 107.12C873.158 108.176 874.158 109.048 875.438 109.736C876.718 110.424 878.374 110.768 880.406 110.768ZM901.274 110H907.85V96.752C907.85 93.744 909.034 91.696 911.402 90.608C912.17 90.24 913.026 90.024 913.97 89.96C914.93 89.88 915.77 89.952 916.49 90.176V84.08C915.322 83.936 914.154 83.968 912.986 84.176C911.818 84.368 910.762 84.752 909.818 85.328C909.21 85.68 908.674 86.104 908.21 86.6C907.762 87.096 907.37 87.648 907.034 88.256V84.08H901.274V110ZM930.246 110.72C933.638 110.72 936.294 109.96 938.214 108.44C940.134 106.92 941.094 104.832 941.094 102.176C941.094 100.16 940.47 98.568 939.222 97.4C937.99 96.232 935.894 95.264 932.934 94.496C930.918 93.984 929.414 93.568 928.422 93.248C927.446 92.928 926.798 92.616 926.478 92.312C926.174 92.008 926.022 91.632 926.022 91.184C926.022 90.432 926.382 89.856 927.102 89.456C927.838 89.056 928.806 88.896 930.006 88.976C932.55 89.168 933.942 90.256 934.182 92.24L940.854 91.04C940.518 88.688 939.366 86.824 937.398 85.448C935.43 84.056 932.918 83.36 929.862 83.36C926.726 83.36 924.222 84.096 922.35 85.568C920.478 87.04 919.542 89.024 919.542 91.52C919.542 93.504 920.19 95.072 921.486 96.224C922.782 97.36 925.014 98.336 928.182 99.152C930.054 99.648 931.43 100.048 932.31 100.352C933.206 100.656 933.782 100.968 934.038 101.288C934.294 101.592 934.422 102 934.422 102.512C934.422 103.328 934.102 103.968 933.462 104.432C932.822 104.88 931.91 105.104 930.726 105.104C929.286 105.104 928.094 104.76 927.15 104.072C926.222 103.384 925.622 102.432 925.35 101.216L918.678 102.224C919.11 104.928 920.326 107.024 922.326 108.512C924.342 109.984 926.982 110.72 930.246 110.72ZM958.416 110.72C960.912 110.72 963.208 110.064 965.304 108.752C967.416 107.44 968.96 105.6 969.936 103.232L963.408 101.36C962.416 103.536 960.624 104.624 958.032 104.624C956.256 104.624 954.856 104.128 953.832 103.136C952.824 102.144 952.2 100.72 951.96 98.864H970.152C970.424 95.728 970.104 93 969.192 90.68C968.28 88.36 966.872 86.56 964.968 85.28C963.064 84 960.752 83.36 958.032 83.36C955.472 83.36 953.208 83.944 951.24 85.112C949.272 86.264 947.728 87.888 946.608 89.984C945.488 92.08 944.928 94.544 944.928 97.376C944.928 99.968 945.496 102.272 946.632 104.288C947.784 106.288 949.368 107.864 951.384 109.016C953.416 110.152 955.76 110.72 958.416 110.72ZM958.32 89.024C959.888 89.024 961.088 89.416 961.92 90.2C962.768 90.984 963.312 92.256 963.552 94.016H952.128C952.816 90.688 954.88 89.024 958.32 89.024ZM976.051 110H982.579V74.72H976.051V110ZM991.934 110H998.462V89.12H1004.46V84.08H998.462V82.64C998.462 81.92 998.71 81.304 999.206 80.792C999.702 80.264 1000.46 80 1001.49 80H1004.46V74.72H1001.25C1000.62 74.72 999.87 74.736 998.99 74.768C998.11 74.784 997.198 74.96 996.254 75.296C995.326 75.616 994.462 76.224 993.662 77.12C993.054 77.792 992.63 78.544 992.39 79.376C992.15 80.208 992.014 81.04 991.982 81.872C991.95 82.688 991.934 83.424 991.934 84.08H987.854V89.12H991.934V110Z" fill="#070632"/>
<path d="M572.692 110H579.22V75.44H572.692V110ZM586.367 110H592.991V96.848C592.991 95.232 593.167 93.936 593.519 92.96C593.887 91.984 594.351 91.248 594.911 90.752C595.471 90.24 596.071 89.896 596.711 89.72C597.351 89.544 597.951 89.456 598.511 89.456C599.903 89.456 600.975 89.768 601.727 90.392C602.495 91.016 603.047 91.792 603.383 92.72C603.719 93.648 603.919 94.576 603.983 95.504C604.047 96.416 604.079 97.168 604.079 97.76V110H610.703V95.456C610.703 95.024 610.671 94.336 610.607 93.392C610.543 92.448 610.359 91.408 610.055 90.272C609.751 89.12 609.239 88.016 608.519 86.96C607.815 85.904 606.823 85.032 605.543 84.344C604.263 83.656 602.607 83.312 600.575 83.312C598.703 83.312 597.071 83.624 595.679 84.248C594.287 84.872 593.119 85.704 592.175 86.744V84.08H586.367V110ZM632.482 110V104.576C630.946 104.784 629.546 104.848 628.282 104.768C627.018 104.688 626.098 104.192 625.522 103.28C625.218 102.8 625.05 102.16 625.018 101.36C625.002 100.544 624.994 99.632 624.994 98.624V89.12H632.482V84.08H624.994V76.88H618.466V84.08H614.05V89.12H618.466V99.008C618.466 100.56 618.482 101.952 618.514 103.184C618.546 104.4 618.882 105.6 619.522 106.784C620.226 108.048 621.25 108.968 622.594 109.544C623.954 110.104 625.49 110.4 627.202 110.432C628.93 110.48 630.69 110.336 632.482 110ZM638.258 110H644.834V96.752C644.834 93.744 646.018 91.696 648.386 90.608C649.154 90.24 650.01 90.024 650.954 89.96C651.914 89.88 652.754 89.952 653.474 90.176V84.08C652.306 83.936 651.138 83.968 649.97 84.176C648.802 84.368 647.746 84.752 646.802 85.328C646.194 85.68 645.658 86.104 645.194 86.6C644.746 87.096 644.354 87.648 644.018 88.256V84.08H638.258V110ZM669.235 110.72C671.827 110.72 674.107 110.144 676.075 108.992C678.059 107.824 679.603 106.216 680.707 104.168C681.827 102.104 682.387 99.728 682.387 97.04C682.387 94.368 681.835 92.008 680.731 89.96C679.627 87.896 678.083 86.28 676.099 85.112C674.131 83.944 671.843 83.36 669.235 83.36C666.675 83.36 664.411 83.936 662.443 85.088C660.475 86.24 658.931 87.848 657.811 89.912C656.691 91.96 656.131 94.336 656.131 97.04C656.131 99.712 656.675 102.08 657.763 104.144C658.867 106.192 660.403 107.8 662.371 108.968C664.339 110.136 666.627 110.72 669.235 110.72ZM669.235 104.624C667.203 104.624 665.659 103.944 664.603 102.584C663.563 101.208 663.043 99.36 663.043 97.04C663.043 94.784 663.539 92.96 664.531 91.568C665.539 90.16 667.107 89.456 669.235 89.456C671.299 89.456 672.851 90.144 673.891 91.52C674.947 92.896 675.475 94.736 675.475 97.04C675.475 99.264 674.955 101.088 673.915 102.512C672.891 103.92 671.331 104.624 669.235 104.624ZM698.177 110.72C699.601 110.72 700.897 110.528 702.065 110.144C703.233 109.76 704.273 109.216 705.185 108.512V110H710.945V75.44H704.369V84.944C703.569 84.432 702.673 84.04 701.681 83.768C700.705 83.496 699.649 83.36 698.513 83.36C696.033 83.36 693.873 83.952 692.033 85.136C690.193 86.32 688.761 87.944 687.737 90.008C686.729 92.056 686.225 94.4 686.225 97.04C686.225 99.632 686.721 101.96 687.713 104.024C688.721 106.088 690.121 107.72 691.913 108.92C693.705 110.12 695.793 110.72 698.177 110.72ZM699.233 104.912C697.825 104.912 696.673 104.56 695.777 103.856C694.881 103.152 694.217 102.208 693.785 101.024C693.353 99.824 693.137 98.496 693.137 97.04C693.137 95.6 693.361 94.288 693.809 93.104C694.257 91.904 694.945 90.952 695.873 90.248C696.817 89.528 698.017 89.168 699.473 89.168C701.521 89.168 702.985 89.896 703.865 91.352C704.745 92.792 705.185 94.688 705.185 97.04C705.185 99.392 704.737 101.296 703.841 102.752C702.961 104.192 701.425 104.912 699.233 104.912ZM727.313 110.768C729.185 110.768 730.817 110.456 732.209 109.832C733.601 109.208 734.769 108.376 735.713 107.336V110H741.473V84.08H734.897V97.232C734.897 98.832 734.713 100.128 734.345 101.12C733.993 102.096 733.537 102.84 732.977 103.352C732.417 103.848 731.817 104.184 731.177 104.36C730.537 104.536 729.937 104.624 729.377 104.624C727.985 104.624 726.905 104.312 726.137 103.688C725.385 103.064 724.841 102.288 724.505 101.36C724.169 100.432 723.969 99.512 723.905 98.6C723.841 97.672 723.809 96.912 723.809 96.32V84.08H717.185V98.624C717.185 99.056 717.217 99.744 717.281 100.688C717.345 101.632 717.529 102.68 717.833 103.832C718.137 104.968 718.641 106.064 719.345 107.12C720.065 108.176 721.065 109.048 722.345 109.736C723.625 110.424 725.281 110.768 727.313 110.768ZM759.604 110.72C762.612 110.72 765.14 109.976 767.188 108.488C769.236 107 770.628 104.88 771.364 102.128L764.692 100.736C764.308 101.984 763.732 102.944 762.964 103.616C762.196 104.288 761.076 104.624 759.604 104.624C757.636 104.624 756.148 103.928 755.14 102.536C754.148 101.128 753.652 99.296 753.652 97.04C753.652 94.88 754.124 93.08 755.068 91.64C756.028 90.184 757.54 89.456 759.604 89.456C760.804 89.456 761.876 89.832 762.82 90.584C763.78 91.336 764.452 92.384 764.836 93.728L771.364 92C770.788 89.328 769.46 87.224 767.38 85.688C765.316 84.136 762.756 83.36 759.7 83.36C757.06 83.36 754.772 83.952 752.836 85.136C750.9 86.32 749.396 87.944 748.324 90.008C747.268 92.072 746.74 94.416 746.74 97.04C746.74 99.632 747.252 101.96 748.276 104.024C749.3 106.088 750.772 107.72 752.692 108.92C754.612 110.12 756.916 110.72 759.604 110.72ZM787.51 110.72C790.006 110.72 792.302 110.064 794.398 108.752C796.51 107.44 798.054 105.6 799.03 103.232L792.502 101.36C791.51 103.536 789.718 104.624 787.126 104.624C785.35 104.624 783.95 104.128 782.926 103.136C781.918 102.144 781.294 100.72 781.054 98.864H799.246C799.518 95.728 799.198 93 798.286 90.68C797.374 88.36 795.966 86.56 794.062 85.28C792.158 84 789.846 83.36 787.126 83.36C784.566 83.36 782.302 83.944 780.334 85.112C778.366 86.264 776.822 87.888 775.702 89.984C774.582 92.08 774.022 94.544 774.022 97.376C774.022 99.968 774.59 102.272 775.726 104.288C776.878 106.288 778.462 107.864 780.478 109.016C782.51 110.152 784.854 110.72 787.51 110.72ZM787.414 89.024C788.982 89.024 790.182 89.416 791.014 90.2C791.862 90.984 792.406 92.256 792.646 94.016H781.222C781.91 90.688 783.974 89.024 787.414 89.024Z" fill="#3772FF"/>
<path d="M694.054 24.2631H696.093C695.687 23.2132 695.065 22.2253 694.21 21.3788C692.798 19.9763 691.007 19.186 689.163 19V19.4068C689.165 22.0858 691.358 24.2631 694.054 24.2631Z" fill="#3772FF"/>
<path d="M682.588 25.9368H680.102C679.702 28.4589 680.473 31.1302 682.432 33.075C683.844 34.4775 685.635 35.2678 687.479 35.4538V30.7931C687.477 28.116 685.284 25.9368 682.588 25.9368Z" fill="#3772FF"/>
<path d="M694.053 25.9368C690.427 25.9368 687.477 23.0079 687.477 19.4068V19C685.633 19.186 683.842 19.9763 682.43 21.3788C681.577 22.2253 680.953 23.2132 680.547 24.2631H682.586C686.212 24.2631 689.162 27.192 689.162 30.7931V35.4538C691.006 35.2678 692.797 34.4775 694.209 33.075C696.168 31.1302 696.939 28.4608 696.539 25.9368H694.053ZM689.921 25.1135C689.221 25.4331 688.657 25.9949 688.335 26.6884L688.321 26.7019V26.6961L688.312 26.6864C687.99 25.991 687.424 25.4312 686.726 25.1116L686.712 25.098L686.722 25.0883C687.422 24.7687 687.986 24.2069 688.308 23.5135L688.321 23.4999V23.5057L688.331 23.5154C688.653 24.2108 689.219 24.7706 689.917 25.0903L689.931 25.1038L689.921 25.1135Z" fill="#3772FF"/>
<path d="M369.054 108.585H371.093C370.687 107.535 370.065 106.547 369.21 105.701C367.798 104.298 366.007 103.508 364.163 103.322V103.729C364.165 106.408 366.358 108.585 369.054 108.585Z" fill="#FDBF50"/>
<path d="M357.588 110.259H355.102C354.702 112.781 355.473 115.452 357.432 117.397C358.844 118.799 360.635 119.59 362.479 119.776V115.115C362.477 112.438 360.284 110.259 357.588 110.259Z" fill="#FDBF50"/>
<path d="M369.507 109.937C365.88 109.937 362.93 107.008 362.93 103.407V103C361.086 103.186 359.295 103.976 357.883 105.379C357.03 106.225 356.406 107.213 356 108.263H358.039C361.666 108.263 364.615 111.192 364.615 114.793V119.454C366.459 119.268 368.25 118.477 369.663 117.075C371.621 115.13 372.392 112.461 371.992 109.937H369.507ZM365.374 109.114C364.674 109.433 364.11 109.995 363.788 110.688L363.775 110.702V110.696L363.765 110.686C363.443 109.991 362.877 109.431 362.179 109.112L362.165 109.098L362.175 109.088C362.875 108.769 363.439 108.207 363.761 107.513L363.775 107.5V107.506L363.784 107.515C364.106 108.211 364.672 108.771 365.37 109.09L365.384 109.104L365.374 109.114Z" fill="#FDBF50"/>
<path d="M1094.05 116.263H1096.09C1095.69 115.213 1095.06 114.225 1094.21 113.379C1092.8 111.976 1091.01 111.186 1089.16 111V111.407C1089.17 114.086 1091.36 116.263 1094.05 116.263Z" fill="#FD9790"/>
<path d="M1082.59 117.937H1080.1C1079.7 120.459 1080.47 123.13 1082.43 125.075C1083.84 126.477 1085.64 127.268 1087.48 127.454V122.793C1087.48 120.116 1085.28 117.937 1082.59 117.937Z" fill="#FD9790"/>
<path d="M1094.05 117.937C1090.43 117.937 1087.48 115.008 1087.48 111.407V111C1085.63 111.186 1083.84 111.976 1082.43 113.379C1081.58 114.225 1080.95 115.213 1080.55 116.263H1082.59C1086.21 116.263 1089.16 119.192 1089.16 122.793V127.454C1091.01 127.268 1092.8 126.477 1094.21 125.075C1096.17 123.13 1096.94 120.461 1096.54 117.937H1094.05ZM1089.92 117.114C1089.22 117.433 1088.66 117.995 1088.34 118.688L1088.32 118.702V118.696L1088.31 118.686C1087.99 117.991 1087.42 117.431 1086.73 117.112L1086.71 117.098L1086.72 117.088C1087.42 116.769 1087.99 116.207 1088.31 115.513L1088.32 115.5V115.506L1088.33 115.515C1088.65 116.211 1089.22 116.771 1089.92 117.09L1089.93 117.104L1089.92 117.114Z" fill="#FD9790"/>
<path d="M448.838 153.24C449.968 153.24 450.907 153.005 451.654 152.536C452.406 152.061 452.968 151.413 453.342 150.592C453.715 149.771 453.902 148.843 453.902 147.808C453.902 147.749 453.899 147.653 453.894 147.52C453.888 147.381 453.88 147.251 453.87 147.128H449.982V148.136H452.638C452.579 149.363 452.248 150.333 451.646 151.048C451.043 151.763 450.123 152.117 448.886 152.112C447.984 152.107 447.23 151.899 446.622 151.488C446.019 151.077 445.568 150.507 445.27 149.776C444.971 149.045 444.824 148.2 444.83 147.24C444.84 146.28 444.995 145.435 445.294 144.704C445.592 143.973 446.04 143.403 446.638 142.992C447.235 142.581 447.984 142.379 448.886 142.384C449.734 142.384 450.443 142.595 451.014 143.016C451.59 143.437 452.006 144 452.262 144.704L453.446 144.416C453.142 143.451 452.603 142.683 451.83 142.112C451.062 141.536 450.064 141.248 448.838 141.248C447.739 141.248 446.798 141.496 446.014 141.992C445.23 142.488 444.627 143.184 444.206 144.08C443.79 144.976 443.582 146.029 443.582 147.24C443.582 148.456 443.792 149.515 444.214 150.416C444.64 151.312 445.246 152.008 446.03 152.504C446.814 152.995 447.75 153.24 448.838 153.24ZM455.663 142.72H456.839V141.4H455.663V142.72ZM455.663 153H456.839V144.36H455.663V153ZM461.573 153H462.789L465.925 144.36H464.717L462.181 151.464L459.629 144.36H458.437L461.573 153ZM470.706 153.24C471.543 153.24 472.292 153.035 472.954 152.624C473.62 152.213 474.124 151.629 474.466 150.872L473.37 150.448C472.82 151.557 471.916 152.112 470.658 152.112C469.794 152.112 469.116 151.843 468.626 151.304C468.14 150.765 467.874 150 467.826 149.008H474.634C474.676 147.483 474.343 146.288 473.634 145.424C472.93 144.555 471.938 144.12 470.658 144.12C469.826 144.12 469.103 144.307 468.49 144.68C467.882 145.053 467.41 145.584 467.074 146.272C466.738 146.96 466.57 147.776 466.57 148.72C466.57 149.632 466.738 150.427 467.074 151.104C467.415 151.781 467.895 152.307 468.514 152.68C469.138 153.053 469.868 153.24 470.706 153.24ZM470.69 145.2C472.316 145.2 473.22 146.141 473.402 148.024H467.85C467.94 147.112 468.228 146.413 468.714 145.928C469.199 145.443 469.858 145.2 470.69 145.2ZM479.604 153H480.66V151.792C480.97 152.24 481.362 152.595 481.836 152.856C482.311 153.112 482.863 153.24 483.492 153.24C484.303 153.24 484.994 153.04 485.564 152.64C486.135 152.235 486.57 151.688 486.868 151C487.172 150.312 487.324 149.536 487.324 148.672C487.324 147.813 487.172 147.04 486.868 146.352C486.57 145.664 486.138 145.12 485.572 144.72C485.007 144.32 484.33 144.12 483.54 144.12C482.943 144.12 482.412 144.232 481.948 144.456C481.49 144.675 481.103 144.981 480.788 145.376V141.48H479.604V153ZM483.372 152.144C482.759 152.144 482.252 151.995 481.852 151.696C481.452 151.392 481.154 150.979 480.956 150.456C480.759 149.933 480.66 149.339 480.66 148.672C480.66 147.653 480.882 146.824 481.324 146.184C481.772 145.539 482.447 145.216 483.348 145.216C483.967 145.216 484.476 145.368 484.876 145.672C485.282 145.976 485.583 146.389 485.78 146.912C485.978 147.435 486.076 148.021 486.076 148.672C486.076 149.328 485.975 149.917 485.772 150.44C485.575 150.963 485.276 151.379 484.876 151.688C484.476 151.992 483.975 152.144 483.372 152.144ZM491.553 153.24C493.062 153.24 494.158 152.683 494.841 151.568V153H495.889V147.632C495.889 147.312 495.873 146.997 495.841 146.688C495.809 146.379 495.74 146.099 495.633 145.848C495.404 145.288 495.012 144.861 494.457 144.568C493.908 144.269 493.238 144.12 492.449 144.12C491.5 144.12 490.726 144.333 490.129 144.76C489.532 145.187 489.132 145.787 488.929 146.56L490.073 146.896C490.238 146.32 490.524 145.899 490.929 145.632C491.34 145.365 491.841 145.232 492.433 145.232C493.254 145.232 493.841 145.424 494.193 145.808C494.545 146.187 494.726 146.765 494.737 147.544C494.353 147.597 493.929 147.653 493.465 147.712C493.006 147.771 492.545 147.837 492.081 147.912C491.617 147.987 491.19 148.072 490.801 148.168C490.156 148.339 489.628 148.624 489.217 149.024C488.806 149.419 488.601 149.971 488.601 150.68C488.601 151.139 488.71 151.563 488.929 151.952C489.148 152.341 489.476 152.653 489.913 152.888C490.356 153.123 490.902 153.24 491.553 153.24ZM491.689 152.224C491.225 152.224 490.852 152.149 490.569 152C490.292 151.845 490.089 151.651 489.961 151.416C489.838 151.176 489.777 150.931 489.777 150.68C489.777 150.211 489.934 149.859 490.249 149.624C490.564 149.389 490.905 149.219 491.273 149.112C491.748 148.984 492.3 148.88 492.929 148.8C493.558 148.72 494.156 148.645 494.721 148.576C494.721 148.773 494.713 149 494.697 149.256C494.686 149.507 494.657 149.739 494.609 149.952C494.497 150.603 494.188 151.144 493.681 151.576C493.18 152.008 492.516 152.224 491.689 152.224ZM501.556 153.24C502.414 153.24 503.15 153.04 503.764 152.64C504.382 152.235 504.854 151.648 505.18 150.88L503.996 150.528C503.558 151.584 502.745 152.112 501.556 152.112C500.628 152.112 499.929 151.8 499.46 151.176C498.99 150.547 498.75 149.715 498.74 148.68C498.75 147.672 498.982 146.848 499.436 146.208C499.894 145.568 500.601 145.248 501.556 145.248C502.121 145.248 502.622 145.392 503.06 145.68C503.502 145.963 503.825 146.363 504.028 146.88L505.18 146.512C504.94 145.771 504.494 145.187 503.844 144.76C503.198 144.333 502.438 144.12 501.564 144.12C500.705 144.12 499.974 144.312 499.372 144.696C498.769 145.075 498.308 145.608 497.988 146.296C497.668 146.979 497.502 147.773 497.492 148.68C497.502 149.565 497.662 150.352 497.972 151.04C498.286 151.728 498.745 152.267 499.348 152.656C499.95 153.045 500.686 153.24 501.556 153.24ZM506.823 153H508.015V148.84L512.255 153H513.967L509.391 148.68L513.439 144.36H511.871L508.015 148.52V141.48H506.831L506.823 153ZM518.268 153.24C519.106 153.24 519.855 153.035 520.516 152.624C521.183 152.213 521.687 151.629 522.028 150.872L520.932 150.448C520.383 151.557 519.479 152.112 518.22 152.112C517.356 152.112 516.679 151.843 516.188 151.304C515.703 150.765 515.436 150 515.388 149.008H522.196C522.239 147.483 521.906 146.288 521.196 145.424C520.492 144.555 519.5 144.12 518.22 144.12C517.388 144.12 516.666 144.307 516.052 144.68C515.444 145.053 514.972 145.584 514.636 146.272C514.3 146.96 514.132 147.776 514.132 148.72C514.132 149.632 514.3 150.427 514.636 151.104C514.978 151.781 515.458 152.307 516.076 152.68C516.7 153.053 517.431 153.24 518.268 153.24ZM518.252 145.2C519.879 145.2 520.783 146.141 520.964 148.024H515.412C515.503 147.112 515.791 146.413 516.276 145.928C516.762 145.443 517.42 145.2 518.252 145.2ZM523.972 153H525.148V148.688C525.148 148.171 525.206 147.656 525.324 147.144C525.446 146.627 525.724 146.197 526.156 145.856C526.47 145.6 526.812 145.453 527.18 145.416C527.553 145.373 527.9 145.389 528.22 145.464V144.36C527.841 144.264 527.412 144.261 526.932 144.352C526.452 144.437 526.041 144.629 525.7 144.928C525.444 145.12 525.22 145.387 525.028 145.728V144.36H523.972V153ZM535.412 153.24C536.922 153.24 538.018 152.683 538.7 151.568V153H539.748V147.632C539.748 147.312 539.732 146.997 539.7 146.688C539.668 146.379 539.599 146.099 539.492 145.848C539.263 145.288 538.871 144.861 538.316 144.568C537.767 144.269 537.098 144.12 536.308 144.12C535.359 144.12 534.586 144.333 533.988 144.76C533.391 145.187 532.991 145.787 532.788 146.56L533.932 146.896C534.098 146.32 534.383 145.899 534.788 145.632C535.199 145.365 535.7 145.232 536.292 145.232C537.114 145.232 537.7 145.424 538.052 145.808C538.404 146.187 538.586 146.765 538.596 147.544C538.212 147.597 537.788 147.653 537.324 147.712C536.866 147.771 536.404 147.837 535.94 147.912C535.476 147.987 535.05 148.072 534.66 148.168C534.015 148.339 533.487 148.624 533.076 149.024C532.666 149.419 532.46 149.971 532.46 150.68C532.46 151.139 532.57 151.563 532.788 151.952C533.007 152.341 533.335 152.653 533.772 152.888C534.215 153.123 534.762 153.24 535.412 153.24ZM535.548 152.224C535.084 152.224 534.711 152.149 534.428 152C534.151 151.845 533.948 151.651 533.82 151.416C533.698 151.176 533.636 150.931 533.636 150.68C533.636 150.211 533.794 149.859 534.108 149.624C534.423 149.389 534.764 149.219 535.132 149.112C535.607 148.984 536.159 148.88 536.788 148.8C537.418 148.72 538.015 148.645 538.58 148.576C538.58 148.773 538.572 149 538.556 149.256C538.546 149.507 538.516 149.739 538.468 149.952C538.356 150.603 538.047 151.144 537.54 151.576C537.039 152.008 536.375 152.224 535.548 152.224ZM541.823 153H543.007V148.392C543.007 147.416 543.226 146.651 543.663 146.096C544.1 145.541 544.735 145.264 545.567 145.264C546.17 145.264 546.655 145.411 547.023 145.704C547.391 145.992 547.658 146.387 547.823 146.888C547.988 147.389 548.071 147.957 548.071 148.592V153H549.255V148.248C549.255 147.763 549.194 147.277 549.071 146.792C548.954 146.307 548.762 145.864 548.495 145.464C548.228 145.064 547.874 144.744 547.431 144.504C546.988 144.264 546.442 144.144 545.791 144.144C545.172 144.144 544.612 144.264 544.111 144.504C543.615 144.739 543.207 145.091 542.887 145.56V144.36H541.823V153ZM554.694 142.72H555.87V141.4H554.694V142.72ZM554.694 153H555.87V144.36H554.694V153ZM561.62 153.24C562.25 153.24 562.802 153.112 563.276 152.856C563.751 152.595 564.143 152.24 564.452 151.792V153H565.508V141.48H564.324V145.376C564.01 144.981 563.62 144.675 563.156 144.456C562.698 144.232 562.17 144.12 561.572 144.12C560.783 144.12 560.106 144.32 559.54 144.72C558.975 145.12 558.54 145.664 558.236 146.352C557.938 147.04 557.788 147.813 557.788 148.672C557.788 149.536 557.938 150.312 558.236 151C558.54 151.688 558.978 152.235 559.548 152.64C560.124 153.04 560.815 153.24 561.62 153.24ZM561.74 152.144C561.143 152.144 560.642 151.992 560.236 151.688C559.836 151.379 559.535 150.963 559.332 150.44C559.135 149.917 559.036 149.328 559.036 148.672C559.036 148.021 559.135 147.435 559.332 146.912C559.53 146.389 559.828 145.976 560.228 145.672C560.634 145.368 561.146 145.216 561.764 145.216C562.666 145.216 563.338 145.539 563.78 146.184C564.228 146.824 564.452 147.653 564.452 148.672C564.452 149.339 564.354 149.933 564.156 150.456C563.959 150.979 563.66 151.392 563.26 151.696C562.86 151.995 562.354 152.144 561.74 152.144ZM571.409 153.24C572.246 153.24 572.995 153.035 573.657 152.624C574.323 152.213 574.827 151.629 575.169 150.872L574.073 150.448C573.523 151.557 572.619 152.112 571.361 152.112C570.497 152.112 569.819 151.843 569.329 151.304C568.843 150.765 568.577 150 568.529 149.008H575.337C575.379 147.483 575.046 146.288 574.337 145.424C573.633 144.555 572.641 144.12 571.361 144.12C570.529 144.12 569.806 144.307 569.193 144.68C568.585 145.053 568.113 145.584 567.777 146.272C567.441 146.96 567.273 147.776 567.273 148.72C567.273 149.632 567.441 150.427 567.777 151.104C568.118 151.781 568.598 152.307 569.217 152.68C569.841 153.053 570.571 153.24 571.409 153.24ZM571.393 145.2C573.019 145.2 573.923 146.141 574.105 148.024H568.553C568.643 147.112 568.931 146.413 569.417 145.928C569.902 145.443 570.561 145.2 571.393 145.2ZM579.428 153.24C580.937 153.24 582.033 152.683 582.716 151.568V153H583.764V147.632C583.764 147.312 583.748 146.997 583.716 146.688C583.684 146.379 583.615 146.099 583.508 145.848C583.279 145.288 582.887 144.861 582.332 144.568C581.783 144.269 581.113 144.12 580.324 144.12C579.375 144.12 578.601 144.333 578.004 144.76C577.407 145.187 577.007 145.787 576.804 146.56L577.948 146.896C578.113 146.32 578.399 145.899 578.804 145.632C579.215 145.365 579.716 145.232 580.308 145.232C581.129 145.232 581.716 145.424 582.068 145.808C582.42 146.187 582.601 146.765 582.612 147.544C582.228 147.597 581.804 147.653 581.34 147.712C580.881 147.771 580.42 147.837 579.956 147.912C579.492 147.987 579.065 148.072 578.676 148.168C578.031 148.339 577.503 148.624 577.092 149.024C576.681 149.419 576.476 149.971 576.476 150.68C576.476 151.139 576.585 151.563 576.804 151.952C577.023 152.341 577.351 152.653 577.788 152.888C578.231 153.123 578.777 153.24 579.428 153.24ZM579.564 152.224C579.1 152.224 578.727 152.149 578.444 152C578.167 151.845 577.964 151.651 577.836 151.416C577.713 151.176 577.652 150.931 577.652 150.68C577.652 150.211 577.809 149.859 578.124 149.624C578.439 149.389 578.78 149.219 579.148 149.112C579.623 148.984 580.175 148.88 580.804 148.8C581.433 148.72 582.031 148.645 582.596 148.576C582.596 148.773 582.588 149 582.572 149.256C582.561 149.507 582.532 149.739 582.484 149.952C582.372 150.603 582.063 151.144 581.556 151.576C581.055 152.008 580.391 152.224 579.564 152.224ZM592.658 153.24C593.511 153.24 594.242 153.048 594.85 152.664C595.463 152.28 595.932 151.747 596.258 151.064C596.588 150.376 596.754 149.579 596.754 148.672C596.754 147.781 596.591 146.995 596.266 146.312C595.946 145.624 595.479 145.088 594.866 144.704C594.258 144.315 593.522 144.12 592.658 144.12C591.815 144.12 591.087 144.312 590.474 144.696C589.866 145.075 589.396 145.605 589.066 146.288C588.735 146.971 588.57 147.765 588.57 148.672C588.57 149.563 588.73 150.352 589.05 151.04C589.375 151.728 589.842 152.267 590.45 152.656C591.063 153.045 591.799 153.24 592.658 153.24ZM592.658 152.112C591.724 152.112 591.018 151.8 590.538 151.176C590.058 150.547 589.818 149.712 589.818 148.672C589.818 147.664 590.05 146.843 590.514 146.208C590.978 145.568 591.692 145.248 592.658 145.248C593.612 145.248 594.324 145.56 594.794 146.184C595.268 146.803 595.506 147.632 595.506 148.672C595.506 149.691 595.271 150.52 594.802 151.16C594.332 151.795 593.618 152.112 592.658 152.112ZM599.374 153H600.55V145.368H602.91V144.36H600.55V143.592C600.55 142.685 600.996 142.232 601.886 142.232H602.91V141.24H601.806C601.476 141.24 601.142 141.275 600.806 141.344C600.47 141.413 600.172 141.589 599.91 141.872C599.676 142.128 599.526 142.419 599.462 142.744C599.404 143.064 599.374 143.389 599.374 143.72V144.36H597.878V145.368H599.374V153ZM609.233 153H610.257L612.409 146.12L614.569 153H615.593L618.233 144.36H617.065L615.001 151.072L612.945 144.36H611.873L609.817 151.072L607.769 144.36L606.593 144.352L609.233 153ZM619.667 153H620.851V148.392C620.851 147.416 621.069 146.651 621.507 146.096C621.944 145.541 622.579 145.264 623.411 145.264C624.013 145.264 624.499 145.411 624.867 145.704C625.235 145.992 625.501 146.387 625.667 146.888C625.832 147.389 625.915 147.957 625.915 148.592V153H627.099V148.248C627.099 147.763 627.037 147.277 626.915 146.792C626.797 146.307 626.605 145.864 626.339 145.464C626.072 145.064 625.717 144.744 625.275 144.504C624.832 144.264 624.285 144.144 623.635 144.144C623.016 144.144 622.456 144.264 621.955 144.504C621.459 144.739 621.051 145.091 620.731 145.56V141.48H619.667V153ZM632.783 153.24C633.636 153.24 634.367 153.048 634.975 152.664C635.588 152.28 636.057 151.747 636.383 151.064C636.713 150.376 636.879 149.579 636.879 148.672C636.879 147.781 636.716 146.995 636.391 146.312C636.071 145.624 635.604 145.088 634.991 144.704C634.383 144.315 633.647 144.12 632.783 144.12C631.94 144.12 631.212 144.312 630.599 144.696C629.991 145.075 629.521 145.605 629.191 146.288C628.86 146.971 628.695 147.765 628.695 148.672C628.695 149.563 628.855 150.352 629.175 151.04C629.5 151.728 629.967 152.267 630.575 152.656C631.188 153.045 631.924 153.24 632.783 153.24ZM632.783 152.112C631.849 152.112 631.143 151.8 630.663 151.176C630.183 150.547 629.943 149.712 629.943 148.672C629.943 147.664 630.175 146.843 630.639 146.208C631.103 145.568 631.817 145.248 632.783 145.248C633.737 145.248 634.449 145.56 634.919 146.184C635.393 146.803 635.631 147.632 635.631 148.672C635.631 149.691 635.396 150.52 634.927 151.16C634.457 151.795 633.743 152.112 632.783 152.112ZM643.079 156.84H644.255L648.895 144.36H647.695L645.079 151.464L642.239 144.36H640.991L644.503 152.976L643.079 156.84ZM653.58 153.24C654.433 153.24 655.164 153.048 655.772 152.664C656.385 152.28 656.854 151.747 657.18 151.064C657.51 150.376 657.676 149.579 657.676 148.672C657.676 147.781 657.513 146.995 657.188 146.312C656.868 145.624 656.401 145.088 655.788 144.704C655.18 144.315 654.444 144.12 653.58 144.12C652.737 144.12 652.009 144.312 651.396 144.696C650.788 145.075 650.318 145.605 649.988 146.288C649.657 146.971 649.492 147.765 649.492 148.672C649.492 149.563 649.652 150.352 649.972 151.04C650.297 151.728 650.764 152.267 651.372 152.656C651.985 153.045 652.721 153.24 653.58 153.24ZM653.58 152.112C652.646 152.112 651.94 151.8 651.46 151.176C650.98 150.547 650.74 149.712 650.74 148.672C650.74 147.664 650.972 146.843 651.436 146.208C651.9 145.568 652.614 145.248 653.58 145.248C654.534 145.248 655.246 145.56 655.716 146.184C656.19 146.803 656.428 147.632 656.428 148.672C656.428 149.691 656.193 150.52 655.724 151.16C655.254 151.795 654.54 152.112 653.58 152.112ZM662.744 153.216C663.363 153.216 663.92 153.099 664.416 152.864C664.918 152.624 665.328 152.269 665.648 151.8V153H666.704V144.36H665.528V148.968C665.528 149.944 665.31 150.709 664.872 151.264C664.435 151.819 663.8 152.096 662.968 152.096C662.366 152.096 661.88 151.952 661.512 151.664C661.144 151.371 660.878 150.973 660.712 150.472C660.547 149.971 660.464 149.403 660.464 148.768V144.36H659.28V149.112C659.28 149.597 659.339 150.083 659.456 150.568C659.579 151.053 659.774 151.496 660.04 151.896C660.307 152.296 660.662 152.616 661.104 152.856C661.552 153.096 662.099 153.216 662.744 153.216ZM668.78 154.672C669.196 154.752 669.527 154.669 669.772 154.424C670.023 154.179 670.148 153.811 670.148 153.32V151.312H668.78V153H669.508C669.524 153.299 669.498 153.56 669.428 153.784C669.359 154.008 669.167 154.109 668.852 154.088L668.78 154.672ZM678.865 153.24C680.375 153.24 681.471 152.683 682.153 151.568V153H683.201V147.632C683.201 147.312 683.185 146.997 683.153 146.688C683.121 146.379 683.052 146.099 682.945 145.848C682.716 145.288 682.324 144.861 681.769 144.568C681.22 144.269 680.551 144.12 679.761 144.12C678.812 144.12 678.039 144.333 677.441 144.76C676.844 145.187 676.444 145.787 676.241 146.56L677.385 146.896C677.551 146.32 677.836 145.899 678.241 145.632C678.652 145.365 679.153 145.232 679.745 145.232C680.567 145.232 681.153 145.424 681.505 145.808C681.857 146.187 682.039 146.765 682.049 147.544C681.665 147.597 681.241 147.653 680.777 147.712C680.319 147.771 679.857 147.837 679.393 147.912C678.929 147.987 678.503 148.072 678.113 148.168C677.468 148.339 676.94 148.624 676.529 149.024C676.119 149.419 675.913 149.971 675.913 150.68C675.913 151.139 676.023 151.563 676.241 151.952C676.46 152.341 676.788 152.653 677.225 152.888C677.668 153.123 678.215 153.24 678.865 153.24ZM679.001 152.224C678.537 152.224 678.164 152.149 677.881 152C677.604 151.845 677.401 151.651 677.273 151.416C677.151 151.176 677.089 150.931 677.089 150.68C677.089 150.211 677.247 149.859 677.561 149.624C677.876 149.389 678.217 149.219 678.585 149.112C679.06 148.984 679.612 148.88 680.241 148.8C680.871 148.72 681.468 148.645 682.033 148.576C682.033 148.773 682.025 149 682.009 149.256C681.999 149.507 681.969 149.739 681.921 149.952C681.809 150.603 681.5 151.144 680.993 151.576C680.492 152.008 679.828 152.224 679.001 152.224ZM685.276 153H686.46V148.392C686.46 147.416 686.679 146.651 687.116 146.096C687.553 145.541 688.188 145.264 689.02 145.264C689.623 145.264 690.108 145.411 690.476 145.704C690.844 145.992 691.111 146.387 691.276 146.888C691.441 147.389 691.524 147.957 691.524 148.592V153H692.708V148.248C692.708 147.763 692.647 147.277 692.524 146.792C692.407 146.307 692.215 145.864 691.948 145.464C691.681 145.064 691.327 144.744 690.884 144.504C690.441 144.264 689.895 144.144 689.244 144.144C688.625 144.144 688.065 144.264 687.564 144.504C687.068 144.739 686.66 145.091 686.34 145.56V144.36H685.276V153ZM698.074 153.24C698.703 153.24 699.255 153.112 699.73 152.856C700.204 152.595 700.596 152.24 700.906 151.792V153H701.962V141.48H700.778V145.376C700.463 144.981 700.074 144.675 699.61 144.456C699.151 144.232 698.623 144.12 698.026 144.12C697.236 144.12 696.559 144.32 695.994 144.72C695.428 145.12 694.994 145.664 694.69 146.352C694.391 147.04 694.242 147.813 694.242 148.672C694.242 149.536 694.391 150.312 694.69 151C694.994 151.688 695.431 152.235 696.002 152.64C696.578 153.04 697.268 153.24 698.074 153.24ZM698.194 152.144C697.596 152.144 697.095 151.992 696.69 151.688C696.29 151.379 695.988 150.963 695.786 150.44C695.588 149.917 695.49 149.328 695.49 148.672C695.49 148.021 695.588 147.435 695.786 146.912C695.983 146.389 696.282 145.976 696.682 145.672C697.087 145.368 697.599 145.216 698.218 145.216C699.119 145.216 699.791 145.539 700.234 146.184C700.682 146.824 700.906 147.653 700.906 148.672C700.906 149.339 700.807 149.933 700.61 150.456C700.412 150.979 700.114 151.392 699.714 151.696C699.314 151.995 698.807 152.144 698.194 152.144ZM709.881 153.24C711.39 153.24 712.486 152.683 713.169 151.568V153H714.217V147.632C714.217 147.312 714.201 146.997 714.169 146.688C714.137 146.379 714.068 146.099 713.961 145.848C713.732 145.288 713.34 144.861 712.785 144.568C712.236 144.269 711.566 144.12 710.777 144.12C709.828 144.12 709.054 144.333 708.457 144.76C707.86 145.187 707.46 145.787 707.257 146.56L708.401 146.896C708.566 146.32 708.852 145.899 709.257 145.632C709.668 145.365 710.169 145.232 710.761 145.232C711.582 145.232 712.169 145.424 712.521 145.808C712.873 146.187 713.054 146.765 713.065 147.544C712.681 147.597 712.257 147.653 711.793 147.712C711.334 147.771 710.873 147.837 710.409 147.912C709.945 147.987 709.518 148.072 709.129 148.168C708.484 148.339 707.956 148.624 707.545 149.024C707.134 149.419 706.929 149.971 706.929 150.68C706.929 151.139 707.038 151.563 707.257 151.952C707.476 152.341 707.804 152.653 708.241 152.888C708.684 153.123 709.23 153.24 709.881 153.24ZM710.017 152.224C709.553 152.224 709.18 152.149 708.897 152C708.62 151.845 708.417 151.651 708.289 151.416C708.166 151.176 708.105 150.931 708.105 150.68C708.105 150.211 708.262 149.859 708.577 149.624C708.892 149.389 709.233 149.219 709.601 149.112C710.076 148.984 710.628 148.88 711.257 148.8C711.886 148.72 712.484 148.645 713.049 148.576C713.049 148.773 713.041 149 713.025 149.256C713.014 149.507 712.985 149.739 712.937 149.952C712.825 150.603 712.516 151.144 712.009 151.576C711.508 152.008 710.844 152.224 710.017 152.224ZM719.652 153.24C720.281 153.24 720.833 153.112 721.308 152.856C721.782 152.595 722.174 152.24 722.484 151.792V153H723.54V141.48H722.356V145.376C722.041 144.981 721.652 144.675 721.188 144.456C720.729 144.232 720.201 144.12 719.604 144.12C718.814 144.12 718.137 144.32 717.572 144.72C717.006 145.12 716.572 145.664 716.268 146.352C715.969 147.04 715.82 147.813 715.82 148.672C715.82 149.536 715.969 150.312 716.268 151C716.572 151.688 717.009 152.235 717.58 152.64C718.156 153.04 718.846 153.24 719.652 153.24ZM719.772 152.144C719.174 152.144 718.673 151.992 718.268 151.688C717.868 151.379 717.566 150.963 717.364 150.44C717.166 149.917 717.068 149.328 717.068 148.672C717.068 148.021 717.166 147.435 717.364 146.912C717.561 146.389 717.86 145.976 718.26 145.672C718.665 145.368 719.177 145.216 719.796 145.216C720.697 145.216 721.369 145.539 721.812 146.184C722.26 146.824 722.484 147.653 722.484 148.672C722.484 149.339 722.385 149.933 722.188 150.456C721.99 150.979 721.692 151.392 721.292 151.696C720.892 151.995 720.385 152.144 719.772 152.144ZM729.136 153.24C729.765 153.24 730.317 153.112 730.792 152.856C731.267 152.595 731.659 152.24 731.968 151.792V153H733.024V141.48H731.84V145.376C731.525 144.981 731.136 144.675 730.672 144.456C730.213 144.232 729.685 144.12 729.088 144.12C728.299 144.12 727.621 144.32 727.056 144.72C726.491 145.12 726.056 145.664 725.752 146.352C725.453 147.04 725.304 147.813 725.304 148.672C725.304 149.536 725.453 150.312 725.752 151C726.056 151.688 726.493 152.235 727.064 152.64C727.64 153.04 728.331 153.24 729.136 153.24ZM729.256 152.144C728.659 152.144 728.157 151.992 727.752 151.688C727.352 151.379 727.051 150.963 726.848 150.44C726.651 149.917 726.552 149.328 726.552 148.672C726.552 148.021 726.651 147.435 726.848 146.912C727.045 146.389 727.344 145.976 727.744 145.672C728.149 145.368 728.661 145.216 729.28 145.216C730.181 145.216 730.853 145.539 731.296 146.184C731.744 146.824 731.968 147.653 731.968 148.672C731.968 149.339 731.869 149.933 731.672 150.456C731.475 150.979 731.176 151.392 730.776 151.696C730.376 151.995 729.869 152.144 729.256 152.144ZM742.056 153.24C742.914 153.24 743.65 153.04 744.264 152.64C744.882 152.235 745.354 151.648 745.68 150.88L744.496 150.528C744.058 151.584 743.245 152.112 742.056 152.112C741.128 152.112 740.429 151.8 739.96 151.176C739.49 150.547 739.25 149.715 739.24 148.68C739.25 147.672 739.482 146.848 739.936 146.208C740.394 145.568 741.101 145.248 742.056 145.248C742.621 145.248 743.122 145.392 743.56 145.68C744.002 145.963 744.325 146.363 744.528 146.88L745.68 146.512C745.44 145.771 744.994 145.187 744.344 144.76C743.698 144.333 742.938 144.12 742.064 144.12C741.205 144.12 740.474 144.312 739.872 144.696C739.269 145.075 738.808 145.608 738.488 146.296C738.168 146.979 738.002 147.773 737.992 148.68C738.002 149.565 738.162 150.352 738.472 151.04C738.786 151.728 739.245 152.267 739.848 152.656C740.45 153.045 741.186 153.24 742.056 153.24ZM750.705 153.24C751.558 153.24 752.289 153.048 752.897 152.664C753.51 152.28 753.979 151.747 754.305 151.064C754.635 150.376 754.801 149.579 754.801 148.672C754.801 147.781 754.638 146.995 754.313 146.312C753.993 145.624 753.526 145.088 752.913 144.704C752.305 144.315 751.569 144.12 750.705 144.12C749.862 144.12 749.134 144.312 748.521 144.696C747.913 145.075 747.443 145.605 747.113 146.288C746.782 146.971 746.617 147.765 746.617 148.672C746.617 149.563 746.777 150.352 747.097 151.04C747.422 151.728 747.889 152.267 748.497 152.656C749.11 153.045 749.846 153.24 750.705 153.24ZM750.705 152.112C749.771 152.112 749.065 151.8 748.585 151.176C748.105 150.547 747.865 149.712 747.865 148.672C747.865 147.664 748.097 146.843 748.561 146.208C749.025 145.568 749.739 145.248 750.705 145.248C751.659 145.248 752.371 145.56 752.841 146.184C753.315 146.803 753.553 147.632 753.553 148.672C753.553 149.691 753.318 150.52 752.849 151.16C752.379 151.795 751.665 152.112 750.705 152.112ZM756.725 153H757.901V141.24H756.725V153ZM760.46 153H761.636V141.24H760.46V153ZM766.506 153.24C768.015 153.24 769.111 152.683 769.794 151.568V153H770.842V147.632C770.842 147.312 770.826 146.997 770.794 146.688C770.762 146.379 770.693 146.099 770.586 145.848C770.357 145.288 769.965 144.861 769.41 144.568C768.861 144.269 768.191 144.12 767.402 144.12C766.453 144.12 765.679 144.333 765.082 144.76C764.485 145.187 764.085 145.787 763.882 146.56L765.026 146.896C765.191 146.32 765.477 145.899 765.882 145.632C766.293 145.365 766.794 145.232 767.386 145.232C768.207 145.232 768.794 145.424 769.146 145.808C769.498 146.187 769.679 146.765 769.69 147.544C769.306 147.597 768.882 147.653 768.418 147.712C767.959 147.771 767.498 147.837 767.034 147.912C766.57 147.987 766.143 148.072 765.754 148.168C765.109 148.339 764.581 148.624 764.17 149.024C763.759 149.419 763.554 149.971 763.554 150.68C763.554 151.139 763.663 151.563 763.882 151.952C764.101 152.341 764.429 152.653 764.866 152.888C765.309 153.123 765.855 153.24 766.506 153.24ZM766.642 152.224C766.178 152.224 765.805 152.149 765.522 152C765.245 151.845 765.042 151.651 764.914 151.416C764.791 151.176 764.73 150.931 764.73 150.68C764.73 150.211 764.887 149.859 765.202 149.624C765.517 149.389 765.858 149.219 766.226 149.112C766.701 148.984 767.253 148.88 767.882 148.8C768.511 148.72 769.109 148.645 769.674 148.576C769.674 148.773 769.666 149 769.65 149.256C769.639 149.507 769.61 149.739 769.562 149.952C769.45 150.603 769.141 151.144 768.634 151.576C768.133 152.008 767.469 152.224 766.642 152.224ZM772.917 153H773.973V151.792C774.282 152.24 774.674 152.595 775.149 152.856C775.623 153.112 776.175 153.24 776.805 153.24C777.615 153.24 778.306 153.04 778.877 152.64C779.447 152.235 779.882 151.688 780.181 151C780.485 150.312 780.637 149.536 780.637 148.672C780.637 147.813 780.485 147.04 780.181 146.352C779.882 145.664 779.45 145.12 778.885 144.72C778.319 144.32 777.642 144.12 776.853 144.12C776.255 144.12 775.725 144.232 775.261 144.456C774.802 144.675 774.415 144.981 774.101 145.376V141.48H772.917V153ZM776.685 152.144C776.071 152.144 775.565 151.995 775.165 151.696C774.765 151.392 774.466 150.979 774.269 150.456C774.071 149.933 773.973 149.339 773.973 148.672C773.973 147.653 774.194 146.824 774.637 146.184C775.085 145.539 775.759 145.216 776.661 145.216C777.279 145.216 777.789 145.368 778.189 145.672C778.594 145.976 778.895 146.389 779.093 146.912C779.29 147.435 779.389 148.021 779.389 148.672C779.389 149.328 779.287 149.917 779.085 150.44C778.887 150.963 778.589 151.379 778.189 151.688C777.789 151.992 777.287 152.144 776.685 152.144ZM786.001 153.24C786.855 153.24 787.585 153.048 788.193 152.664C788.807 152.28 789.276 151.747 789.601 151.064C789.932 150.376 790.097 149.579 790.097 148.672C790.097 147.781 789.935 146.995 789.609 146.312C789.289 145.624 788.823 145.088 788.209 144.704C787.601 144.315 786.865 144.12 786.001 144.12C785.159 144.12 784.431 144.312 783.817 144.696C783.209 145.075 782.74 145.605 782.409 146.288C782.079 146.971 781.913 147.765 781.913 148.672C781.913 149.563 782.073 150.352 782.393 151.04C782.719 151.728 783.185 152.267 783.793 152.656C784.407 153.045 785.143 153.24 786.001 153.24ZM786.001 152.112C785.068 152.112 784.361 151.8 783.881 151.176C783.401 150.547 783.161 149.712 783.161 148.672C783.161 147.664 783.393 146.843 783.857 146.208C784.321 145.568 785.036 145.248 786.001 145.248C786.956 145.248 787.668 145.56 788.137 146.184C788.612 146.803 788.849 147.632 788.849 148.672C788.849 149.691 788.615 150.52 788.145 151.16C787.676 151.795 786.961 152.112 786.001 152.112ZM791.862 153H793.038V148.688C793.038 148.171 793.097 147.656 793.214 147.144C793.337 146.627 793.614 146.197 794.046 145.856C794.361 145.6 794.702 145.453 795.07 145.416C795.444 145.373 795.79 145.389 796.11 145.464V144.36C795.732 144.264 795.302 144.261 794.822 144.352C794.342 144.437 793.932 144.629 793.59 144.928C793.334 145.12 793.11 145.387 792.918 145.728V144.36H791.862V153ZM799.787 153.24C801.297 153.24 802.393 152.683 803.075 151.568V153H804.123V147.632C804.123 147.312 804.107 146.997 804.075 146.688C804.043 146.379 803.974 146.099 803.867 145.848C803.638 145.288 803.246 144.861 802.691 144.568C802.142 144.269 801.473 144.12 800.683 144.12C799.734 144.12 798.961 144.333 798.363 144.76C797.766 145.187 797.366 145.787 797.163 146.56L798.307 146.896C798.473 146.32 798.758 145.899 799.163 145.632C799.574 145.365 800.075 145.232 800.667 145.232C801.489 145.232 802.075 145.424 802.427 145.808C802.779 146.187 802.961 146.765 802.971 147.544C802.587 147.597 802.163 147.653 801.699 147.712C801.241 147.771 800.779 147.837 800.315 147.912C799.851 147.987 799.425 148.072 799.035 148.168C798.39 148.339 797.862 148.624 797.451 149.024C797.041 149.419 796.835 149.971 796.835 150.68C796.835 151.139 796.945 151.563 797.163 151.952C797.382 152.341 797.71 152.653 798.147 152.888C798.59 153.123 799.137 153.24 799.787 153.24ZM799.923 152.224C799.459 152.224 799.086 152.149 798.803 152C798.526 151.845 798.323 151.651 798.195 151.416C798.073 151.176 798.011 150.931 798.011 150.68C798.011 150.211 798.169 149.859 798.483 149.624C798.798 149.389 799.139 149.219 799.507 149.112C799.982 148.984 800.534 148.88 801.163 148.8C801.793 148.72 802.39 148.645 802.955 148.576C802.955 148.773 802.947 149 802.931 149.256C802.921 149.507 802.891 149.739 802.843 149.952C802.731 150.603 802.422 151.144 801.915 151.576C801.414 152.008 800.75 152.224 799.923 152.224ZM810.91 153V151.968C810.291 152.069 809.771 152.085 809.35 152.016C808.934 151.947 808.63 151.733 808.438 151.376C808.337 151.189 808.281 150.976 808.27 150.736C808.265 150.491 808.262 150.187 808.262 149.824V145.368H810.91V144.36H808.262V141.96H807.094V144.36H805.246V145.368H807.094V149.872C807.094 150.293 807.099 150.669 807.11 151C807.126 151.331 807.211 151.653 807.366 151.968C807.558 152.352 807.838 152.635 808.206 152.816C808.579 152.997 809.001 153.099 809.47 153.12C809.945 153.141 810.425 153.101 810.91 153ZM815.908 153.24C816.761 153.24 817.492 153.048 818.1 152.664C818.713 152.28 819.182 151.747 819.508 151.064C819.838 150.376 820.004 149.579 820.004 148.672C820.004 147.781 819.841 146.995 819.516 146.312C819.196 145.624 818.729 145.088 818.116 144.704C817.508 144.315 816.772 144.12 815.908 144.12C815.065 144.12 814.337 144.312 813.724 144.696C813.116 145.075 812.646 145.605 812.316 146.288C811.985 146.971 811.82 147.765 811.82 148.672C811.82 149.563 811.98 150.352 812.3 151.04C812.625 151.728 813.092 152.267 813.7 152.656C814.313 153.045 815.049 153.24 815.908 153.24ZM815.908 152.112C814.974 152.112 814.268 151.8 813.788 151.176C813.308 150.547 813.068 149.712 813.068 148.672C813.068 147.664 813.3 146.843 813.764 146.208C814.228 145.568 814.942 145.248 815.908 145.248C816.862 145.248 817.574 145.56 818.044 146.184C818.518 146.803 818.756 147.632 818.756 148.672C818.756 149.691 818.521 150.52 818.052 151.16C817.582 151.795 816.868 152.112 815.908 152.112ZM821.768 153H822.944V148.688C822.944 148.171 823.003 147.656 823.12 147.144C823.243 146.627 823.52 146.197 823.952 145.856C824.267 145.6 824.608 145.453 824.976 145.416C825.35 145.373 825.696 145.389 826.016 145.464V144.36C825.638 144.264 825.208 144.261 824.728 144.352C824.248 144.437 823.838 144.629 823.496 144.928C823.24 145.12 823.016 145.387 822.824 145.728V144.36H821.768V153ZM830.446 153.232C831.507 153.232 832.339 153 832.942 152.536C833.55 152.067 833.854 151.424 833.854 150.608C833.854 150.16 833.758 149.784 833.566 149.48C833.379 149.176 833.056 148.912 832.598 148.688C832.144 148.464 831.52 148.251 830.726 148.048C830.048 147.877 829.526 147.72 829.158 147.576C828.795 147.432 828.544 147.28 828.406 147.12C828.267 146.955 828.198 146.757 828.198 146.528C828.198 146.117 828.39 145.789 828.774 145.544C829.158 145.299 829.656 145.181 830.27 145.192C830.92 145.203 831.456 145.357 831.878 145.656C832.299 145.949 832.552 146.349 832.638 146.856L833.838 146.64C833.779 146.139 833.592 145.699 833.278 145.32C832.963 144.941 832.547 144.648 832.03 144.44C831.518 144.227 830.936 144.12 830.286 144.12C829.635 144.12 829.062 144.224 828.566 144.432C828.075 144.635 827.691 144.923 827.414 145.296C827.142 145.664 827.006 146.093 827.006 146.584C827.006 146.984 827.096 147.325 827.278 147.608C827.464 147.885 827.782 148.133 828.23 148.352C828.678 148.565 829.291 148.779 830.07 148.992C830.8 149.189 831.347 149.36 831.71 149.504C832.078 149.648 832.323 149.805 832.446 149.976C832.568 150.141 832.63 150.357 832.63 150.624C832.63 151.093 832.44 151.467 832.062 151.744C831.683 152.021 831.166 152.16 830.51 152.16C829.838 152.16 829.272 152.016 828.814 151.728C828.355 151.435 828.064 151.043 827.942 150.552L826.742 150.752C826.891 151.531 827.291 152.139 827.942 152.576C828.598 153.013 829.432 153.232 830.446 153.232ZM838.991 142.72H840.167V141.4H838.991V142.72ZM838.991 153H840.167V144.36H838.991V153ZM843.421 153H844.597V145.368H846.957V144.36H844.597V143.592C844.597 142.685 845.043 142.232 845.933 142.232H846.957V141.24H845.853C845.523 141.24 845.189 141.275 844.853 141.344C844.517 141.413 844.219 141.589 843.957 141.872C843.723 142.128 843.573 142.419 843.509 142.744C843.451 143.064 843.421 143.389 843.421 143.72V144.36H841.925V145.368H843.421V153ZM852.672 156.84H853.848L858.488 144.36H857.288L854.672 151.464L851.832 144.36H850.584L854.096 152.976L852.672 156.84ZM863.173 153.24C864.027 153.24 864.757 153.048 865.365 152.664C865.979 152.28 866.448 151.747 866.773 151.064C867.104 150.376 867.269 149.579 867.269 148.672C867.269 147.781 867.107 146.995 866.781 146.312C866.461 145.624 865.995 145.088 865.381 144.704C864.773 144.315 864.037 144.12 863.173 144.12C862.331 144.12 861.603 144.312 860.989 144.696C860.381 145.075 859.912 145.605 859.581 146.288C859.251 146.971 859.085 147.765 859.085 148.672C859.085 149.563 859.245 150.352 859.565 151.04C859.891 151.728 860.357 152.267 860.965 152.656C861.579 153.045 862.315 153.24 863.173 153.24ZM863.173 152.112C862.24 152.112 861.533 151.8 861.053 151.176C860.573 150.547 860.333 149.712 860.333 148.672C860.333 147.664 860.565 146.843 861.029 146.208C861.493 145.568 862.208 145.248 863.173 145.248C864.128 145.248 864.84 145.56 865.309 146.184C865.784 146.803 866.021 147.632 866.021 148.672C866.021 149.691 865.787 150.52 865.317 151.16C864.848 151.795 864.133 152.112 863.173 152.112ZM872.338 153.216C872.957 153.216 873.514 153.099 874.01 152.864C874.511 152.624 874.922 152.269 875.242 151.8V153H876.298V144.36H875.122V148.968C875.122 149.944 874.903 150.709 874.466 151.264C874.029 151.819 873.394 152.096 872.562 152.096C871.959 152.096 871.474 151.952 871.106 151.664C870.738 151.371 870.471 150.973 870.306 150.472C870.141 149.971 870.058 149.403 870.058 148.768V144.36H868.874V149.112C868.874 149.597 868.933 150.083 869.05 150.568C869.173 151.053 869.367 151.496 869.634 151.896C869.901 152.296 870.255 152.616 870.698 152.856C871.146 153.096 871.693 153.216 872.338 153.216ZM883.577 153H884.601L886.753 146.12L888.913 153H889.937L892.577 144.36H891.409L889.345 151.072L887.289 144.36H886.217L884.161 151.072L882.113 144.36L880.937 144.352L883.577 153ZM897.314 153.24C898.167 153.24 898.898 153.048 899.506 152.664C900.119 152.28 900.589 151.747 900.914 151.064C901.245 150.376 901.41 149.579 901.41 148.672C901.41 147.781 901.247 146.995 900.922 146.312C900.602 145.624 900.135 145.088 899.522 144.704C898.914 144.315 898.178 144.12 897.314 144.12C896.471 144.12 895.743 144.312 895.13 144.696C894.522 145.075 894.053 145.605 893.722 146.288C893.391 146.971 893.226 147.765 893.226 148.672C893.226 149.563 893.386 150.352 893.706 151.04C894.031 151.728 894.498 152.267 895.106 152.656C895.719 153.045 896.455 153.24 897.314 153.24ZM897.314 152.112C896.381 152.112 895.674 151.8 895.194 151.176C894.714 150.547 894.474 149.712 894.474 148.672C894.474 147.664 894.706 146.843 895.17 146.208C895.634 145.568 896.349 145.248 897.314 145.248C898.269 145.248 898.981 145.56 899.45 146.184C899.925 146.803 900.162 147.632 900.162 148.672C900.162 149.691 899.927 150.52 899.458 151.16C898.989 151.795 898.274 152.112 897.314 152.112ZM903.175 153H904.351V148.688C904.351 148.171 904.409 147.656 904.527 147.144C904.649 146.627 904.927 146.197 905.359 145.856C905.673 145.6 906.015 145.453 906.383 145.416C906.756 145.373 907.103 145.389 907.423 145.464V144.36C907.044 144.264 906.615 144.261 906.135 144.352C905.655 144.437 905.244 144.629 904.903 144.928C904.647 145.12 904.423 145.387 904.231 145.728V144.36H903.175V153ZM908.932 153H910.124V148.84L914.364 153H916.076L911.5 148.68L915.548 144.36H913.98L910.124 148.52V141.48H908.94L908.932 153ZM921.921 153H922.945L925.097 146.12L927.257 153H928.281L930.921 144.36H929.753L927.689 151.072L925.633 144.36H924.561L922.505 151.072L920.457 144.36L919.281 144.352L921.921 153ZM932.522 142.72H933.698V141.4H932.522V142.72ZM932.522 153H933.698V144.36H932.522V153ZM940.801 153V151.968C940.182 152.069 939.662 152.085 939.241 152.016C938.825 151.947 938.521 151.733 938.329 151.376C938.227 151.189 938.171 150.976 938.161 150.736C938.155 150.491 938.153 150.187 938.153 149.824V145.368H940.801V144.36H938.153V141.96H936.985V144.36H935.137V145.368H936.985V149.872C936.985 150.293 936.99 150.669 937.001 151C937.017 151.331 937.102 151.653 937.257 151.968C937.449 152.352 937.729 152.635 938.097 152.816C938.47 152.997 938.891 153.099 939.361 153.12C939.835 153.141 940.315 153.101 940.801 153ZM942.495 153H943.679V148.392C943.679 147.416 943.897 146.651 944.335 146.096C944.772 145.541 945.407 145.264 946.239 145.264C946.841 145.264 947.327 145.411 947.695 145.704C948.063 145.992 948.329 146.387 948.495 146.888C948.66 147.389 948.743 147.957 948.743 148.592V153H949.927V148.248C949.927 147.763 949.865 147.277 949.743 146.792C949.625 146.307 949.433 145.864 949.167 145.464C948.9 145.064 948.545 144.744 948.103 144.504C947.66 144.264 947.113 144.144 946.463 144.144C945.844 144.144 945.284 144.264 944.783 144.504C944.287 144.739 943.879 145.091 943.559 145.56V141.48H942.495V153ZM959.91 153V151.968C959.291 152.069 958.771 152.085 958.35 152.016C957.934 151.947 957.63 151.733 957.438 151.376C957.337 151.189 957.281 150.976 957.27 150.736C957.265 150.491 957.262 150.187 957.262 149.824V145.368H959.91V144.36H957.262V141.96H956.094V144.36H954.246V145.368H956.094V149.872C956.094 150.293 956.099 150.669 956.11 151C956.126 151.331 956.211 151.653 956.366 151.968C956.558 152.352 956.838 152.635 957.206 152.816C957.579 152.997 958.001 153.099 958.47 153.12C958.945 153.141 959.425 153.101 959.91 153ZM964.956 153.24C965.793 153.24 966.542 153.035 967.204 152.624C967.87 152.213 968.374 151.629 968.716 150.872L967.62 150.448C967.07 151.557 966.166 152.112 964.908 152.112C964.044 152.112 963.366 151.843 962.876 151.304C962.39 150.765 962.124 150 962.076 149.008H968.884C968.926 147.483 968.593 146.288 967.884 145.424C967.18 144.555 966.188 144.12 964.908 144.12C964.076 144.12 963.353 144.307 962.74 144.68C962.132 145.053 961.66 145.584 961.324 146.272C960.988 146.96 960.82 147.776 960.82 148.72C960.82 149.632 960.988 150.427 961.324 151.104C961.665 151.781 962.145 152.307 962.764 152.68C963.388 153.053 964.118 153.24 964.956 153.24ZM964.94 145.2C966.566 145.2 967.47 146.141 967.652 148.024H962.1C962.19 147.112 962.478 146.413 962.964 145.928C963.449 145.443 964.108 145.2 964.94 145.2ZM972.975 153.24C974.484 153.24 975.58 152.683 976.263 151.568V153H977.311V147.632C977.311 147.312 977.295 146.997 977.263 146.688C977.231 146.379 977.161 146.099 977.055 145.848C976.825 145.288 976.433 144.861 975.879 144.568C975.329 144.269 974.66 144.12 973.871 144.12C972.921 144.12 972.148 144.333 971.551 144.76C970.953 145.187 970.553 145.787 970.351 146.56L971.495 146.896C971.66 146.32 971.945 145.899 972.351 145.632C972.761 145.365 973.263 145.232 973.855 145.232C974.676 145.232 975.263 145.424 975.615 145.808C975.967 146.187 976.148 146.765 976.159 147.544C975.775 147.597 975.351 147.653 974.887 147.712C974.428 147.771 973.967 147.837 973.503 147.912C973.039 147.987 972.612 148.072 972.223 148.168C971.577 148.339 971.049 148.624 970.639 149.024C970.228 149.419 970.023 149.971 970.023 150.68C970.023 151.139 970.132 151.563 970.351 151.952C970.569 152.341 970.897 152.653 971.335 152.888C971.777 153.123 972.324 153.24 972.975 153.24ZM973.111 152.224C972.647 152.224 972.273 152.149 971.991 152C971.713 151.845 971.511 151.651 971.383 151.416C971.26 151.176 971.199 150.931 971.199 150.68C971.199 150.211 971.356 149.859 971.671 149.624C971.985 149.389 972.327 149.219 972.695 149.112C973.169 148.984 973.721 148.88 974.351 148.8C974.98 148.72 975.577 148.645 976.143 148.576C976.143 148.773 976.135 149 976.119 149.256C976.108 149.507 976.079 149.739 976.031 149.952C975.919 150.603 975.609 151.144 975.103 151.576C974.601 152.008 973.937 152.224 973.111 152.224ZM979.385 153H980.569V147.424C980.569 146.747 980.753 146.205 981.121 145.8C981.489 145.389 981.972 145.184 982.569 145.184C983.167 145.184 983.647 145.384 984.009 145.784C984.377 146.179 984.561 146.72 984.561 147.408L984.553 153H985.713L985.721 147.424C985.721 146.885 985.82 146.453 986.017 146.128C986.22 145.797 986.476 145.557 986.785 145.408C987.095 145.259 987.412 145.184 987.737 145.184C988.308 145.184 988.777 145.376 989.145 145.76C989.519 146.139 989.705 146.661 989.705 147.328L989.697 153H990.873L990.881 147.104C990.881 146.192 990.62 145.469 990.097 144.936C989.58 144.397 988.884 144.128 988.009 144.128C987.433 144.128 986.916 144.259 986.457 144.52C985.999 144.776 985.644 145.131 985.393 145.584C985.159 145.109 984.82 144.749 984.377 144.504C983.94 144.253 983.439 144.128 982.873 144.128C982.361 144.128 981.895 144.232 981.473 144.44C981.052 144.643 980.708 144.92 980.441 145.272V144.36H979.385V153ZM993.18 153H994.548V151.632H993.18V153Z" fill="#5C5C8B"/>
</svg>
