<svg width="1440" height="200" viewBox="0 0 1440 200" fill="none" xmlns="http://www.w3.org/2000/svg">
<rect width="1440" height="200" fill="#FCFCFD"/>
<path d="M562.187 129.21C563.349 129.21 564.31 128.916 565.071 128.328C565.836 127.74 566.368 126.949 566.667 125.955L565.183 125.556C564.982 126.261 564.632 126.814 564.133 127.215C563.634 127.616 562.985 127.817 562.187 127.817C561.473 127.817 560.876 127.656 560.395 127.334C559.919 127.012 559.56 126.562 559.317 125.983C559.079 125.404 558.962 124.73 558.967 123.96C558.972 123.19 559.093 122.516 559.331 121.937C559.569 121.358 559.926 120.908 560.402 120.586C560.878 120.264 561.473 120.103 562.187 120.103C562.985 120.103 563.634 120.304 564.133 120.705C564.632 121.106 564.982 121.659 565.183 122.364L566.667 121.965C566.368 120.971 565.836 120.18 565.071 119.592C564.31 119.004 563.349 118.71 562.187 118.71C561.179 118.71 560.32 118.932 559.611 119.375C558.902 119.818 558.358 120.434 557.98 121.223C557.607 122.007 557.42 122.919 557.42 123.96C557.42 125.001 557.607 125.915 557.98 126.704C558.358 127.488 558.902 128.102 559.611 128.545C560.32 128.988 561.179 129.21 562.187 129.21ZM568.207 129H569.67V125.381H572.344L574.101 129H575.774L573.87 125.094C574.444 124.847 574.873 124.462 575.158 123.939C575.442 123.416 575.585 122.819 575.585 122.147C575.585 121.33 575.375 120.63 574.955 120.047C574.535 119.464 573.902 119.107 573.058 118.976C572.927 118.953 572.789 118.939 572.645 118.934C572.5 118.925 572.379 118.92 572.281 118.92H568.207V129ZM569.67 123.995V120.299H572.225C572.318 120.299 572.421 120.304 572.533 120.313C572.649 120.322 572.759 120.341 572.862 120.369C573.31 120.472 573.627 120.7 573.814 121.055C574 121.41 574.094 121.774 574.094 122.147C574.094 122.516 574 122.88 573.814 123.239C573.627 123.594 573.31 123.825 572.862 123.932C572.759 123.955 572.649 123.972 572.533 123.981C572.421 123.99 572.318 123.995 572.225 123.995H569.67ZM577.312 129H583.752V127.621H578.775V124.506H582.912V123.127H578.775V120.299H583.752V118.92H577.312V129ZM584.733 129H586.252L586.987 126.725H591.124L591.873 129H593.392L590.116 118.92H588.009L584.733 129ZM587.435 125.353L589.045 120.383L590.676 125.353H587.435ZM596.327 129H597.79V120.299H601.143V118.92H592.974V120.299H596.327V129ZM602.263 129H608.703V127.621H603.726V124.506H607.863V123.127H603.726V120.299H608.703V118.92H602.263V129ZM610.244 130.673C610.748 130.762 611.131 130.666 611.392 130.386C611.658 130.106 611.791 129.691 611.791 129.14V127.313H610.244V129H611.049C611.087 129.299 611.052 129.548 610.944 129.749C610.842 129.954 610.639 130.045 610.335 130.022L610.244 130.673ZM617.248 129H623.688V127.621H618.711V124.506H622.848V123.127H618.711V120.299H623.688V118.92H617.248V129ZM624.529 129H626.328L628.869 125.143L631.403 129H633.195L629.765 123.897L633.111 118.92H631.312L628.869 122.658L626.412 118.92H624.62L627.966 123.897L624.529 129ZM634.31 129H635.773V125.381H638.384C638.477 125.381 638.596 125.376 638.741 125.367C638.89 125.358 639.03 125.344 639.161 125.325C640.001 125.19 640.631 124.83 641.051 124.247C641.476 123.664 641.688 122.964 641.688 122.147C641.688 121.33 641.478 120.63 641.058 120.047C640.638 119.464 640.006 119.107 639.161 118.976C639.03 118.953 638.893 118.939 638.748 118.934C638.603 118.925 638.482 118.92 638.384 118.92H634.31V129ZM635.773 123.995V120.299H638.328C638.421 120.299 638.524 120.304 638.636 120.313C638.753 120.322 638.862 120.341 638.965 120.369C639.413 120.472 639.73 120.7 639.917 121.055C640.104 121.41 640.197 121.774 640.197 122.147C640.197 122.516 640.104 122.88 639.917 123.239C639.73 123.594 639.413 123.825 638.965 123.932C638.862 123.955 638.753 123.972 638.636 123.981C638.524 123.99 638.421 123.995 638.328 123.995H635.773ZM643.227 129H649.254V127.621H644.69V118.92H643.227V129ZM654.376 129.21C655.384 129.21 656.243 128.988 656.952 128.545C657.662 128.102 658.203 127.488 658.576 126.704C658.95 125.915 659.136 125.001 659.136 123.96C659.136 122.919 658.95 122.007 658.576 121.223C658.203 120.434 657.662 119.818 656.952 119.375C656.243 118.932 655.384 118.71 654.376 118.71C653.368 118.71 652.51 118.932 651.8 119.375C651.091 119.818 650.547 120.434 650.169 121.223C649.796 122.007 649.609 122.919 649.609 123.96C649.609 125.001 649.796 125.915 650.169 126.704C650.547 127.488 651.091 128.102 651.8 128.545C652.51 128.988 653.368 129.21 654.376 129.21ZM654.376 127.817C653.308 127.808 652.503 127.451 651.961 126.746C651.425 126.041 651.159 125.113 651.163 123.96C651.168 123.19 651.287 122.516 651.52 121.937C651.758 121.354 652.115 120.901 652.591 120.579C653.067 120.252 653.662 120.094 654.376 120.103C655.45 120.108 656.252 120.462 656.784 121.167C657.316 121.872 657.582 122.803 657.582 123.96C657.582 124.73 657.463 125.407 657.225 125.99C656.992 126.569 656.637 127.019 656.161 127.341C655.685 127.663 655.09 127.822 654.376 127.817ZM660.533 129H661.996V125.381H664.67L666.427 129H668.1L666.196 125.094C666.77 124.847 667.199 124.462 667.484 123.939C667.768 123.416 667.911 122.819 667.911 122.147C667.911 121.33 667.701 120.63 667.281 120.047C666.861 119.464 666.228 119.107 665.384 118.976C665.253 118.953 665.115 118.939 664.971 118.934C664.826 118.925 664.705 118.92 664.607 118.92H660.533V129ZM661.996 123.995V120.299H664.551C664.644 120.299 664.747 120.304 664.859 120.313C664.975 120.322 665.085 120.341 665.188 120.369C665.636 120.472 665.953 120.7 666.14 121.055C666.326 121.41 666.42 121.774 666.42 122.147C666.42 122.516 666.326 122.88 666.14 123.239C665.953 123.594 665.636 123.825 665.188 123.932C665.085 123.955 664.975 123.972 664.859 123.981C664.747 123.99 664.644 123.995 664.551 123.995H661.996ZM669.638 129H676.078V127.621H671.101V124.506H675.238V123.127H671.101V120.299H676.078V118.92H669.638V129ZM677.619 130.673C678.123 130.762 678.506 130.666 678.767 130.386C679.033 130.106 679.166 129.691 679.166 129.14V127.313H677.619V129H678.424C678.462 129.299 678.427 129.548 678.319 129.749C678.217 129.954 678.014 130.045 677.71 130.022L677.619 130.673ZM687.934 129.21C688.158 129.21 688.379 129.198 688.599 129.175C688.823 129.152 689.049 129.105 689.278 129.035C689.548 128.965 689.817 128.858 690.083 128.713C690.349 128.564 690.589 128.382 690.804 128.167L691.819 129.133L692.764 128.118L691.504 126.949C691.541 126.8 691.569 126.608 691.588 126.375C691.606 126.137 691.616 125.871 691.616 125.577V123.848H690.307L690.314 125.157C690.314 125.264 690.311 125.376 690.307 125.493C690.302 125.61 690.295 125.719 690.286 125.822L687.542 123.267C687.411 123.146 687.283 123.029 687.157 122.917C687.035 122.805 686.93 122.7 686.842 122.602C686.697 122.439 686.578 122.28 686.485 122.126C686.396 121.967 686.352 121.762 686.352 121.51C686.352 120.941 686.594 120.537 687.08 120.299C687.346 120.173 687.644 120.11 687.976 120.11C688.176 120.11 688.377 120.136 688.578 120.187C688.778 120.234 688.958 120.325 689.117 120.46C689.303 120.614 689.434 120.803 689.509 121.027L690.951 120.691C690.885 120.476 690.79 120.266 690.664 120.061C690.542 119.856 690.393 119.671 690.216 119.508C689.936 119.233 689.6 119.034 689.208 118.913C688.816 118.792 688.41 118.731 687.99 118.731C687.752 118.731 687.509 118.75 687.262 118.787C687.019 118.82 686.779 118.885 686.541 118.983C686.018 119.184 685.607 119.513 685.309 119.97C685.015 120.423 684.868 120.934 684.868 121.503C684.868 121.914 684.945 122.268 685.099 122.567C685.253 122.861 685.479 123.169 685.778 123.491C685.647 123.566 685.516 123.652 685.386 123.75C685.255 123.843 685.136 123.955 685.029 124.086C684.791 124.366 684.616 124.686 684.504 125.045C684.392 125.404 684.338 125.771 684.343 126.144C684.357 126.531 684.424 126.898 684.546 127.243C684.672 127.584 684.863 127.896 685.12 128.181C685.451 128.536 685.862 128.797 686.352 128.965C686.842 129.128 687.369 129.21 687.934 129.21ZM687.976 127.81C687.663 127.81 687.341 127.761 687.01 127.663C686.678 127.56 686.417 127.397 686.226 127.173C686.109 127.028 686.013 126.865 685.939 126.683C685.869 126.501 685.834 126.296 685.834 126.067C685.824 125.647 685.929 125.297 686.149 125.017C686.326 124.802 686.566 124.641 686.87 124.534L689.74 127.166C689.656 127.245 689.551 127.327 689.425 127.411C689.303 127.495 689.145 127.577 688.949 127.656C688.804 127.717 688.652 127.759 688.494 127.782C688.335 127.801 688.162 127.81 687.976 127.81ZM700.902 129.21C702.064 129.21 703.025 128.916 703.786 128.328C704.551 127.74 705.083 126.949 705.382 125.955L703.898 125.556C703.697 126.261 703.347 126.814 702.848 127.215C702.349 127.616 701.7 127.817 700.902 127.817C700.188 127.817 699.591 127.656 699.11 127.334C698.634 127.012 698.275 126.562 698.032 125.983C697.794 125.404 697.677 124.73 697.682 123.96C697.687 123.19 697.808 122.516 698.046 121.937C698.284 121.358 698.641 120.908 699.117 120.586C699.593 120.264 700.188 120.103 700.902 120.103C701.7 120.103 702.349 120.304 702.848 120.705C703.347 121.106 703.697 121.659 703.898 122.364L705.382 121.965C705.083 120.971 704.551 120.18 703.786 119.592C703.025 119.004 702.064 118.71 700.902 118.71C699.894 118.71 699.035 118.932 698.326 119.375C697.617 119.818 697.073 120.434 696.695 121.223C696.322 122.007 696.135 122.919 696.135 123.96C696.135 125.001 696.322 125.915 696.695 126.704C697.073 127.488 697.617 128.102 698.326 128.545C699.035 128.988 699.894 129.21 700.902 129.21ZM711.128 129.21C712.136 129.21 712.995 128.988 713.704 128.545C714.414 128.102 714.955 127.488 715.328 126.704C715.702 125.915 715.888 125.001 715.888 123.96C715.888 122.919 715.702 122.007 715.328 121.223C714.955 120.434 714.414 119.818 713.704 119.375C712.995 118.932 712.136 118.71 711.128 118.71C710.12 118.71 709.262 118.932 708.552 119.375C707.843 119.818 707.299 120.434 706.921 121.223C706.548 122.007 706.361 122.919 706.361 123.96C706.361 125.001 706.548 125.915 706.921 126.704C707.299 127.488 707.843 128.102 708.552 128.545C709.262 128.988 710.12 129.21 711.128 129.21ZM711.128 127.817C710.06 127.808 709.255 127.451 708.713 126.746C708.177 126.041 707.911 125.113 707.915 123.96C707.92 123.19 708.039 122.516 708.272 121.937C708.51 121.354 708.867 120.901 709.343 120.579C709.819 120.252 710.414 120.094 711.128 120.103C712.202 120.108 713.004 120.462 713.536 121.167C714.068 121.872 714.334 122.803 714.334 123.96C714.334 124.73 714.215 125.407 713.977 125.99C713.744 126.569 713.389 127.019 712.913 127.341C712.437 127.663 711.842 127.822 711.128 127.817ZM717.425 129H723.452V127.621H718.888V118.92H717.425V129ZM724.78 129H730.807V127.621H726.243V118.92H724.78V129ZM731.996 129H738.436V127.621H733.459V124.506H737.596V123.127H733.459V120.299H738.436V118.92H731.996V129ZM743.968 129.21C745.13 129.21 746.092 128.916 746.852 128.328C747.618 127.74 748.15 126.949 748.448 125.955L746.964 125.556C746.764 126.261 746.414 126.814 745.914 127.215C745.415 127.616 744.766 127.817 743.968 127.817C743.254 127.817 742.657 127.656 742.176 127.334C741.7 127.012 741.341 126.562 741.098 125.983C740.86 125.404 740.744 124.73 740.748 123.96C740.753 123.19 740.874 122.516 741.112 121.937C741.35 121.358 741.707 120.908 742.183 120.586C742.659 120.264 743.254 120.103 743.968 120.103C744.766 120.103 745.415 120.304 745.914 120.705C746.414 121.106 746.764 121.659 746.964 122.364L748.448 121.965C748.15 120.971 747.618 120.18 746.852 119.592C746.092 119.004 745.13 118.71 743.968 118.71C742.96 118.71 742.102 118.932 741.392 119.375C740.683 119.818 740.139 120.434 739.761 121.223C739.388 122.007 739.201 122.919 739.201 123.96C739.201 125.001 739.388 125.915 739.761 126.704C740.139 127.488 740.683 128.102 741.392 128.545C742.102 128.988 742.96 129.21 743.968 129.21ZM752.501 129H753.964V120.299H757.317V118.92H749.148V120.299H752.501V129ZM760.816 129H763.973C764.066 129 764.239 128.998 764.491 128.993C764.748 128.988 764.993 128.97 765.226 128.937C766.015 128.834 766.677 128.552 767.214 128.09C767.755 127.623 768.164 127.033 768.439 126.319C768.714 125.6 768.852 124.814 768.852 123.96C768.852 123.101 768.714 122.315 768.439 121.601C768.164 120.882 767.755 120.292 767.214 119.83C766.677 119.363 766.015 119.081 765.226 118.983C764.993 118.95 764.748 118.932 764.491 118.927C764.239 118.922 764.066 118.92 763.973 118.92H760.816V129ZM762.314 127.607V120.313H763.973C764.127 120.313 764.314 120.318 764.533 120.327C764.757 120.332 764.953 120.35 765.121 120.383C765.625 120.476 766.036 120.696 766.353 121.041C766.675 121.382 766.913 121.806 767.067 122.315C767.221 122.819 767.298 123.367 767.298 123.96C767.298 124.534 767.223 125.075 767.074 125.584C766.925 126.093 766.689 126.522 766.367 126.872C766.05 127.217 765.634 127.439 765.121 127.537C764.953 127.57 764.759 127.591 764.54 127.6C764.325 127.605 764.136 127.607 763.973 127.607H762.314ZM770.622 129H772.085V118.92H770.622V129ZM778.31 129.21C779.29 129.21 780.121 129.002 780.802 128.587C781.488 128.167 782.011 127.591 782.37 126.858C782.729 126.125 782.909 125.292 782.909 124.359C782.909 124.322 782.907 124.235 782.902 124.1C782.897 123.965 782.89 123.853 782.881 123.764H779.367V124.94H781.327C781.224 125.873 780.926 126.59 780.431 127.089C779.936 127.584 779.257 127.826 778.394 127.817C777.325 127.808 776.52 127.451 775.979 126.746C775.442 126.041 775.176 125.113 775.181 123.96C775.186 123.19 775.305 122.516 775.538 121.937C775.776 121.354 776.133 120.901 776.609 120.579C777.085 120.257 777.68 120.098 778.394 120.103C779.089 120.108 779.666 120.29 780.123 120.649C780.58 121.008 780.909 121.489 781.11 122.091L782.594 121.825C782.337 120.854 781.854 120.094 781.145 119.543C780.44 118.992 779.495 118.717 778.31 118.717C777.391 118.717 776.579 118.929 775.874 119.354C775.169 119.774 774.619 120.376 774.222 121.16C773.825 121.939 773.627 122.873 773.627 123.96C773.627 125.061 773.83 126.004 774.236 126.788C774.642 127.572 775.197 128.172 775.902 128.587C776.607 129.002 777.409 129.21 778.31 129.21ZM784.444 129H785.907V118.92H784.444V129ZM790.522 129H791.985V120.299H795.338V118.92H787.169V120.299H790.522V129ZM795.485 129H797.004L797.739 126.725H801.876L802.625 129H804.144L800.868 118.92H798.761L795.485 129ZM798.187 125.353L799.797 120.383L801.428 125.353H798.187ZM805.54 129H811.567V127.621H807.003V118.92H805.54V129ZM814.161 129H815.68L816.415 126.725H820.552L821.301 129H822.82L819.544 118.92H817.437L814.161 129ZM816.863 125.353L818.473 120.383L820.104 125.353H816.863ZM824.076 129H825.539V125.381H828.213L829.97 129H831.643L829.739 125.094C830.313 124.847 830.742 124.462 831.027 123.939C831.311 123.416 831.454 122.819 831.454 122.147C831.454 121.33 831.244 120.63 830.824 120.047C830.404 119.464 829.771 119.107 828.927 118.976C828.796 118.953 828.658 118.939 828.514 118.934C828.369 118.925 828.248 118.92 828.15 118.92H824.076V129ZM825.539 123.995V120.299H828.094C828.187 120.299 828.29 120.304 828.402 120.313C828.518 120.322 828.628 120.341 828.731 120.369C829.179 120.472 829.496 120.7 829.683 121.055C829.869 121.41 829.963 121.774 829.963 122.147C829.963 122.516 829.869 122.88 829.683 123.239C829.496 123.594 829.179 123.825 828.731 123.932C828.628 123.955 828.518 123.972 828.402 123.981C828.29 123.99 828.187 123.995 828.094 123.995H825.539ZM835.694 129H837.157V120.299H840.51V118.92H832.341V120.299H835.694V129ZM844.009 129H845.493V121.503L850.456 129H851.94V118.92H850.456V126.41L845.493 118.92H844.009V129ZM853.894 129H855.357V124.695H859.025V123.225H855.357V120.383H859.865V118.92H853.894V129ZM863.639 129H865.102V120.299H868.455V118.92H860.286V120.299H863.639V129ZM873.23 129.21C873.925 129.21 874.564 129.093 875.148 128.86C875.736 128.627 876.207 128.281 876.562 127.824C876.916 127.367 877.094 126.8 877.094 126.123C877.094 125.633 877.003 125.227 876.821 124.905C876.639 124.578 876.408 124.317 876.128 124.121C875.852 123.925 875.565 123.773 875.267 123.666C874.973 123.554 874.709 123.465 874.476 123.4L872.614 122.875C872.376 122.81 872.135 122.728 871.893 122.63C871.655 122.527 871.454 122.39 871.291 122.217C871.127 122.044 871.046 121.818 871.046 121.538C871.046 121.249 871.137 120.997 871.319 120.782C871.505 120.563 871.753 120.392 872.061 120.271C872.373 120.15 872.716 120.094 873.09 120.103C873.668 120.108 874.179 120.273 874.623 120.6C875.071 120.922 875.348 121.368 875.456 121.937L877.024 121.671C876.818 120.742 876.37 120.021 875.68 119.508C874.989 118.99 874.133 118.726 873.111 118.717C872.434 118.712 871.823 118.822 871.277 119.046C870.731 119.27 870.297 119.597 869.975 120.026C869.657 120.455 869.499 120.983 869.499 121.608C869.499 122.149 869.613 122.588 869.842 122.924C870.07 123.26 870.355 123.521 870.696 123.708C871.041 123.895 871.382 124.037 871.718 124.135L874.301 124.898C874.674 125.01 874.977 125.169 875.211 125.374C875.449 125.575 875.568 125.857 875.568 126.221C875.568 126.557 875.463 126.846 875.253 127.089C875.047 127.327 874.774 127.511 874.434 127.642C874.093 127.768 873.72 127.831 873.314 127.831C872.66 127.831 872.089 127.661 871.599 127.32C871.109 126.979 870.787 126.499 870.633 125.878L869.107 126.109C869.219 126.748 869.461 127.301 869.835 127.768C870.208 128.23 870.686 128.587 871.27 128.839C871.853 129.086 872.506 129.21 873.23 129.21ZM878.482 129H880.029V127.453H878.482V129Z" fill="#5C5C8B"/>
<path d="M404.024 187H410.552V158.536H421.448V152.44H393.128V158.536H404.024V187ZM425.257 187H431.881V173.848C431.881 172.232 432.057 170.936 432.409 169.96C432.777 168.984 433.241 168.248 433.801 167.752C434.361 167.24 434.961 166.896 435.601 166.72C436.241 166.544 436.841 166.456 437.401 166.456C438.793 166.456 439.865 166.768 440.617 167.392C441.385 168.016 441.937 168.792 442.273 169.72C442.609 170.648 442.809 171.576 442.873 172.504C442.937 173.416 442.969 174.168 442.969 174.76V187H449.593V172.456C449.593 172.024 449.561 171.336 449.497 170.392C449.433 169.448 449.249 168.408 448.945 167.272C448.641 166.12 448.129 165.016 447.409 163.96C446.705 162.904 445.713 162.032 444.433 161.344C443.153 160.656 441.497 160.312 439.465 160.312C437.593 160.312 435.961 160.624 434.569 161.248C433.177 161.872 432.009 162.704 431.065 163.744V152.44H425.257V187ZM467.869 187.72C470.365 187.72 472.661 187.064 474.757 185.752C476.869 184.44 478.413 182.6 479.389 180.232L472.861 178.36C471.869 180.536 470.077 181.624 467.485 181.624C465.709 181.624 464.309 181.128 463.285 180.136C462.277 179.144 461.653 177.72 461.413 175.864H479.605C479.877 172.728 479.557 170 478.645 167.68C477.733 165.36 476.325 163.56 474.421 162.28C472.517 161 470.205 160.36 467.485 160.36C464.925 160.36 462.661 160.944 460.693 162.112C458.725 163.264 457.181 164.888 456.061 166.984C454.941 169.08 454.381 171.544 454.381 174.376C454.381 176.968 454.949 179.272 456.085 181.288C457.237 183.288 458.821 184.864 460.837 186.016C462.869 187.152 465.213 187.72 467.869 187.72ZM467.773 166.024C469.341 166.024 470.541 166.416 471.373 167.2C472.221 167.984 472.765 169.256 473.005 171.016H461.581C462.269 167.688 464.333 166.024 467.773 166.024ZM621.403 187.72C625.371 187.72 628.699 186.736 631.387 184.768C634.091 182.8 635.995 180.136 637.099 176.776L630.523 174.952C629.883 177.032 628.803 178.656 627.283 179.824C625.763 180.992 623.803 181.576 621.403 181.576C618.123 181.576 615.651 180.504 613.987 178.36C612.339 176.2 611.515 173.32 611.515 169.72C611.515 166.12 612.339 163.248 613.987 161.104C615.651 158.944 618.123 157.864 621.403 157.864C623.803 157.864 625.763 158.448 627.283 159.616C628.803 160.768 629.883 162.392 630.523 164.488L637.099 162.664C635.995 159.304 634.091 156.64 631.387 154.672C628.699 152.704 625.371 151.72 621.403 151.72C617.947 151.72 614.963 152.472 612.451 153.976C609.955 155.48 608.027 157.584 606.667 160.288C605.323 162.992 604.651 166.136 604.651 169.72C604.651 173.304 605.323 176.448 606.667 179.152C608.027 181.856 609.955 183.96 612.451 185.464C614.963 186.968 617.947 187.72 621.403 187.72Z" fill="#23262F"/>
<path d="M494.633 187H501.257V163.96L516.281 187H522.905V152.44H516.281V175.48L501.257 152.44H494.633V187ZM541.65 187.72C544.146 187.72 546.442 187.064 548.538 185.752C550.65 184.44 552.194 182.6 553.17 180.232L546.642 178.36C545.65 180.536 543.858 181.624 541.266 181.624C539.49 181.624 538.09 181.128 537.066 180.136C536.058 179.144 535.434 177.72 535.194 175.864H553.386C553.658 172.728 553.338 170 552.426 167.68C551.514 165.36 550.106 163.56 548.202 162.28C546.298 161 543.986 160.36 541.266 160.36C538.706 160.36 536.442 160.944 534.474 162.112C532.506 163.264 530.962 164.888 529.842 166.984C528.722 169.08 528.162 171.544 528.162 174.376C528.162 176.968 528.73 179.272 529.866 181.288C531.018 183.288 532.602 184.864 534.618 186.016C536.65 187.152 538.994 187.72 541.65 187.72ZM541.554 166.024C543.122 166.024 544.322 166.416 545.154 167.2C546.002 167.984 546.546 169.256 546.786 171.016H535.362C536.05 167.688 538.114 166.024 541.554 166.024ZM563.388 187H568.38L574.044 170.104L579.708 187H584.7L592.62 161.08H586.236L581.532 176.536L576.756 161.08H571.332L566.556 176.536L561.852 161.08L555.468 161.032L563.388 187ZM819.102 187H841.662V180.904H825.63V172.024H838.782V165.928H825.63V158.536H841.662V152.44H819.102V187ZM858.839 187.72C861.847 187.72 864.375 186.976 866.423 185.488C868.471 184 869.863 181.88 870.599 179.128L863.927 177.736C863.543 178.984 862.967 179.944 862.199 180.616C861.431 181.288 860.311 181.624 858.839 181.624C856.871 181.624 855.383 180.928 854.375 179.536C853.383 178.128 852.887 176.296 852.887 174.04C852.887 171.88 853.359 170.08 854.303 168.64C855.263 167.184 856.775 166.456 858.839 166.456C860.039 166.456 861.111 166.832 862.055 167.584C863.015 168.336 863.687 169.384 864.071 170.728L870.599 169C870.023 166.328 868.695 164.224 866.615 162.688C864.551 161.136 861.991 160.36 858.935 160.36C856.295 160.36 854.007 160.952 852.071 162.136C850.135 163.32 848.631 164.944 847.559 167.008C846.503 169.072 845.975 171.416 845.975 174.04C845.975 176.632 846.487 178.96 847.511 181.024C848.535 183.088 850.007 184.72 851.927 185.92C853.847 187.12 856.151 187.72 858.839 187.72ZM886.36 187.72C888.952 187.72 891.232 187.144 893.2 185.992C895.184 184.824 896.728 183.216 897.832 181.168C898.952 179.104 899.512 176.728 899.512 174.04C899.512 171.368 898.96 169.008 897.856 166.96C896.752 164.896 895.208 163.28 893.224 162.112C891.256 160.944 888.968 160.36 886.36 160.36C883.8 160.36 881.536 160.936 879.568 162.088C877.6 163.24 876.056 164.848 874.936 166.912C873.816 168.96 873.256 171.336 873.256 174.04C873.256 176.712 873.8 179.08 874.888 181.144C875.992 183.192 877.528 184.8 879.496 185.968C881.464 187.136 883.752 187.72 886.36 187.72ZM886.36 181.624C884.328 181.624 882.784 180.944 881.728 179.584C880.688 178.208 880.168 176.36 880.168 174.04C880.168 171.784 880.664 169.96 881.656 168.568C882.664 167.16 884.232 166.456 886.36 166.456C888.424 166.456 889.976 167.144 891.016 168.52C892.072 169.896 892.6 171.736 892.6 174.04C892.6 176.264 892.08 178.088 891.04 179.512C890.016 180.92 888.456 181.624 886.36 181.624ZM904.742 187H911.366V173.848C911.366 172.232 911.542 170.936 911.894 169.96C912.262 168.984 912.726 168.248 913.286 167.752C913.846 167.24 914.446 166.896 915.086 166.72C915.726 166.544 916.326 166.456 916.886 166.456C918.278 166.456 919.35 166.768 920.102 167.392C920.87 168.016 921.422 168.792 921.758 169.72C922.094 170.648 922.294 171.576 922.358 172.504C922.422 173.416 922.454 174.168 922.454 174.76V187H929.078V172.456C929.078 172.024 929.046 171.336 928.982 170.392C928.918 169.448 928.734 168.408 928.43 167.272C928.126 166.12 927.614 165.016 926.894 163.96C926.19 162.904 925.198 162.032 923.918 161.344C922.638 160.656 920.982 160.312 918.95 160.312C917.078 160.312 915.446 160.624 914.054 161.248C912.662 161.872 911.494 162.704 910.55 163.744V161.08H904.742V187ZM946.501 187.72C949.093 187.72 951.373 187.144 953.341 185.992C955.325 184.824 956.869 183.216 957.973 181.168C959.093 179.104 959.653 176.728 959.653 174.04C959.653 171.368 959.101 169.008 957.997 166.96C956.893 164.896 955.349 163.28 953.365 162.112C951.397 160.944 949.109 160.36 946.501 160.36C943.941 160.36 941.677 160.936 939.709 162.088C937.741 163.24 936.197 164.848 935.077 166.912C933.957 168.96 933.397 171.336 933.397 174.04C933.397 176.712 933.941 179.08 935.029 181.144C936.133 183.192 937.669 184.8 939.637 185.968C941.605 187.136 943.893 187.72 946.501 187.72ZM946.501 181.624C944.469 181.624 942.925 180.944 941.869 179.584C940.829 178.208 940.309 176.36 940.309 174.04C940.309 171.784 940.805 169.96 941.797 168.568C942.805 167.16 944.373 166.456 946.501 166.456C948.565 166.456 950.117 167.144 951.157 168.52C952.213 169.896 952.741 171.736 952.741 174.04C952.741 176.264 952.221 178.088 951.181 179.512C950.157 180.92 948.597 181.624 946.501 181.624ZM964.882 187H971.458V171.304C971.458 169.816 971.866 168.608 972.682 167.68C973.514 166.736 974.61 166.264 975.97 166.264C977.394 166.264 978.506 166.744 979.306 167.704C980.122 168.648 980.53 169.976 980.53 171.688V187H987.058V171.304C987.058 169.816 987.466 168.608 988.282 167.68C989.114 166.736 990.21 166.264 991.57 166.264C992.994 166.264 994.106 166.744 994.906 167.704C995.722 168.648 996.13 169.976 996.13 171.688V187H1002.66V169.96C1002.66 167.128 1001.9 164.84 1000.38 163.096C998.874 161.336 996.642 160.456 993.682 160.456C992.018 160.456 990.49 160.816 989.098 161.536C987.706 162.256 986.594 163.24 985.762 164.488C985.09 163.272 984.13 162.296 982.882 161.56C981.634 160.824 980.082 160.456 978.226 160.456C976.658 160.456 975.218 160.768 973.906 161.392C972.594 162 971.506 162.84 970.642 163.912V161.08H964.882V187ZM1011.27 198.52H1017.32L1031.96 161.08H1025.43L1018.67 178.72L1011.85 161.08H1005.08L1015.55 186.784L1011.27 198.52Z" fill="#3772FF"/>
<path d="M642.383 187H648.959V173.752C648.959 170.744 650.143 168.696 652.511 167.608C653.279 167.24 654.135 167.024 655.079 166.96C656.039 166.88 656.879 166.952 657.599 167.176V161.08C656.431 160.936 655.263 160.968 654.095 161.176C652.927 161.368 651.871 161.752 650.927 162.328C650.319 162.68 649.783 163.104 649.319 163.6C648.871 164.096 648.479 164.648 648.143 165.256V161.08H642.383V187ZM673.744 187.72C676.24 187.72 678.536 187.064 680.632 185.752C682.744 184.44 684.288 182.6 685.264 180.232L678.736 178.36C677.744 180.536 675.952 181.624 673.36 181.624C671.584 181.624 670.184 181.128 669.16 180.136C668.152 179.144 667.528 177.72 667.288 175.864H685.48C685.752 172.728 685.432 170 684.52 167.68C683.608 165.36 682.2 163.56 680.296 162.28C678.392 161 676.08 160.36 673.36 160.36C670.8 160.36 668.536 160.944 666.568 162.112C664.6 163.264 663.056 164.888 661.936 166.984C660.816 169.08 660.256 171.544 660.256 174.376C660.256 176.968 660.824 179.272 661.96 181.288C663.112 183.288 664.696 184.864 666.712 186.016C668.744 187.152 671.088 187.72 673.744 187.72ZM673.648 166.024C675.216 166.024 676.416 166.416 677.248 167.2C678.096 167.984 678.64 169.256 678.88 171.016H667.456C668.144 167.688 670.208 166.024 673.648 166.024ZM697.63 187.72C699.63 187.72 701.31 187.416 702.67 186.808C704.046 186.184 705.31 185.192 706.462 183.832V187H712.174V171.16C712.174 169.976 712.126 168.904 712.03 167.944C711.934 166.984 711.63 166.024 711.118 165.064C710.206 163.336 708.862 162.12 707.086 161.416C705.31 160.712 703.278 160.36 700.99 160.36C697.87 160.36 695.406 161.032 693.598 162.376C691.79 163.72 690.558 165.464 689.902 167.608L695.806 169.48C696.222 168.296 696.95 167.472 697.99 167.008C699.03 166.544 700.03 166.312 700.99 166.312C702.526 166.312 703.67 166.6 704.422 167.176C705.174 167.736 705.614 168.624 705.742 169.84C703.31 170.192 701.166 170.536 699.31 170.872C697.454 171.192 695.902 171.576 694.654 172.024C692.574 172.792 691.11 173.84 690.262 175.168C689.414 176.48 688.99 178.04 688.99 179.848C688.99 181.288 689.318 182.608 689.974 183.808C690.646 184.992 691.622 185.944 692.902 186.664C694.198 187.368 695.774 187.72 697.63 187.72ZM699.022 182.584C697.902 182.584 697.014 182.336 696.358 181.84C695.702 181.328 695.374 180.632 695.374 179.752C695.374 179.096 695.582 178.536 695.998 178.072C696.414 177.592 697.102 177.16 698.062 176.776C698.798 176.504 699.702 176.256 700.774 176.032C701.862 175.792 703.502 175.488 705.694 175.12C705.678 175.744 705.63 176.432 705.55 177.184C705.47 177.92 705.294 178.568 705.022 179.128C704.846 179.496 704.51 179.952 704.014 180.496C703.534 181.04 702.878 181.528 702.046 181.96C701.23 182.376 700.222 182.584 699.022 182.584ZM733.967 187V181.576C732.431 181.784 731.031 181.848 729.767 181.768C728.503 181.688 727.583 181.192 727.007 180.28C726.703 179.8 726.535 179.16 726.503 178.36C726.487 177.544 726.479 176.632 726.479 175.624V166.12H733.967V161.08H726.479V153.88H719.951V161.08H715.535V166.12H719.951V176.008C719.951 177.56 719.967 178.952 719.999 180.184C720.031 181.4 720.367 182.6 721.007 183.784C721.711 185.048 722.735 185.968 724.079 186.544C725.439 187.104 726.975 187.4 728.687 187.432C730.415 187.48 732.175 187.336 733.967 187ZM740.223 157.48H746.751V151.72H740.223V157.48ZM740.223 187H746.751V161.08H740.223V187ZM760.954 187H767.482L776.89 161.08H770.362L764.218 179.032L758.074 161.08H751.546L760.954 187ZM792.338 187.72C794.834 187.72 797.13 187.064 799.226 185.752C801.338 184.44 802.882 182.6 803.858 180.232L797.33 178.36C796.338 180.536 794.546 181.624 791.954 181.624C790.178 181.624 788.778 181.128 787.754 180.136C786.746 179.144 786.122 177.72 785.882 175.864H804.074C804.346 172.728 804.026 170 803.114 167.68C802.202 165.36 800.794 163.56 798.89 162.28C796.986 161 794.674 160.36 791.954 160.36C789.394 160.36 787.13 160.944 785.162 162.112C783.194 163.264 781.65 164.888 780.53 166.984C779.41 169.08 778.85 171.544 778.85 174.376C778.85 176.968 779.418 179.272 780.554 181.288C781.706 183.288 783.29 184.864 785.306 186.016C787.338 187.152 789.682 187.72 792.338 187.72ZM792.242 166.024C793.81 166.024 795.01 166.416 795.842 167.2C796.69 167.984 797.234 169.256 797.474 171.016H786.05C786.738 167.688 788.802 166.024 792.242 166.024ZM1036.39 187H1042.92V180.472H1036.39V187Z" fill="#070632"/>
<path d="M960.436 161.477C983.885 153.139 1026.2 142.597 1007.86 167.133C984.932 197.803 945.226 202.607 947.73 189.261C950.234 175.916 967.734 161.003 991.266 157.695C1010.09 155.049 1005.19 164.492 1000.39 169.544C993.117 176.386 975.32 190.193 962.335 190.681C949.349 191.17 959.478 179.067 966.166 172.954" stroke="#FDBF50"/>
<path d="M685.054 59.2631H687.093C686.687 58.2132 686.065 57.2253 685.21 56.3788C683.798 54.9763 682.007 54.186 680.163 54V54.4068C680.165 57.0858 682.358 59.2631 685.054 59.2631Z" fill="#3772FF"/>
<path d="M673.588 60.9368H671.102C670.702 63.4589 671.473 66.1302 673.432 68.075C674.844 69.4775 676.635 70.2678 678.479 70.4538V65.7931C678.477 63.116 676.284 60.9368 673.588 60.9368Z" fill="#3772FF"/>
<path d="M685.053 60.9368C681.427 60.9368 678.477 58.0079 678.477 54.4068V54C676.633 54.186 674.842 54.9763 673.43 56.3788C672.577 57.2253 671.953 58.2132 671.547 59.2631H673.586C677.212 59.2631 680.162 62.192 680.162 65.7931V70.4538C682.006 70.2678 683.797 69.4775 685.209 68.075C687.168 66.1302 687.939 63.4608 687.539 60.9368H685.053ZM680.921 60.1135C680.221 60.4331 679.657 60.9949 679.335 61.6884L679.321 61.7019V61.6961L679.312 61.6864C678.99 60.991 678.424 60.4312 677.726 60.1116L677.712 60.098L677.722 60.0883C678.422 59.7687 678.986 59.2069 679.308 58.5135L679.321 58.4999V58.5057L679.331 58.5154C679.653 59.2108 680.219 59.7706 680.917 60.0903L680.931 60.1038L680.921 60.1135Z" fill="#3772FF"/>
<path d="M360.054 143.585H362.093C361.687 142.535 361.065 141.547 360.21 140.701C358.798 139.298 357.007 138.508 355.163 138.322V138.729C355.165 141.408 357.358 143.585 360.054 143.585Z" fill="#FDBF50"/>
<path d="M348.588 145.259H346.102C345.702 147.781 346.473 150.452 348.432 152.397C349.844 153.799 351.635 154.59 353.479 154.776V150.115C353.477 147.438 351.284 145.259 348.588 145.259Z" fill="#FDBF50"/>
<path d="M360.507 144.937C356.88 144.937 353.93 142.008 353.93 138.407V138C352.086 138.186 350.295 138.976 348.883 140.379C348.03 141.225 347.406 142.213 347 143.263H349.039C352.666 143.263 355.615 146.192 355.615 149.793V154.454C357.459 154.268 359.25 153.477 360.663 152.075C362.621 150.13 363.392 147.461 362.992 144.937H360.507ZM356.374 144.114C355.674 144.433 355.11 144.995 354.788 145.688L354.775 145.702V145.696L354.765 145.686C354.443 144.991 353.877 144.431 353.179 144.112L353.165 144.098L353.175 144.088C353.875 143.769 354.439 143.207 354.761 142.513L354.775 142.5V142.506L354.784 142.515C355.106 143.211 355.672 143.771 356.37 144.09L356.384 144.104L356.374 144.114Z" fill="#FDBF50"/>
<path d="M1085.05 151.263H1087.09C1086.69 150.213 1086.06 149.225 1085.21 148.379C1083.8 146.976 1082.01 146.186 1080.16 146V146.407C1080.17 149.086 1082.36 151.263 1085.05 151.263Z" fill="#FD9790"/>
<path d="M1073.59 152.937H1071.1C1070.7 155.459 1071.47 158.13 1073.43 160.075C1074.84 161.477 1076.64 162.268 1078.48 162.454V157.793C1078.48 155.116 1076.28 152.937 1073.59 152.937Z" fill="#FD9790"/>
<path d="M1085.05 152.937C1081.43 152.937 1078.48 150.008 1078.48 146.407V146C1076.63 146.186 1074.84 146.976 1073.43 148.379C1072.58 149.225 1071.95 150.213 1071.55 151.263H1073.59C1077.21 151.263 1080.16 154.192 1080.16 157.793V162.454C1082.01 162.268 1083.8 161.477 1085.21 160.075C1087.17 158.13 1087.94 155.461 1087.54 152.937H1085.05ZM1080.92 152.114C1080.22 152.433 1079.66 152.995 1079.34 153.688L1079.32 153.702V153.696L1079.31 153.686C1078.99 152.991 1078.42 152.431 1077.73 152.112L1077.71 152.098L1077.72 152.088C1078.42 151.769 1078.99 151.207 1079.31 150.513L1079.32 150.5V150.506L1079.33 150.515C1079.65 151.211 1080.22 151.771 1080.92 152.09L1080.93 152.104L1080.92 152.114Z" fill="#FD9790"/>
</svg>
