<svg width="198" height="36" viewBox="0 0 198 36" fill="none" xmlns="http://www.w3.org/2000/svg">
<path d="M33.1661 13.1057H35.6237C35.1346 11.8458 34.3843 10.6603 33.3542 9.64446C31.6515 7.9615 29.4925 7.01309 27.27 6.78993V7.27808C27.2723 10.4929 29.9158 13.1057 33.1661 13.1057Z" fill="#3772FF"/>
<path d="M19.3442 15.1141H16.348C15.8658 18.1406 16.7948 21.3462 19.1561 23.68C20.8588 25.3629 23.0178 26.3114 25.2403 26.5345V20.9417C25.238 17.7292 22.5945 15.1141 19.3442 15.1141Z" fill="#3772FF"/>
<path d="M33.1658 15.1141C28.7937 15.1141 25.2377 11.5994 25.2377 7.27808V6.78993C23.0152 7.01309 20.8562 7.9615 19.1534 9.64446C18.1257 10.6603 17.3731 11.8458 16.8839 13.1057H19.3416C23.7137 13.1057 27.2697 16.6204 27.2697 20.9417V26.5345C29.4922 26.3113 31.6512 25.3629 33.3539 23.68C35.7152 21.3461 36.6442 18.1429 36.162 15.1141H33.1658ZM28.1846 14.1261C27.3402 14.5097 26.6606 15.1838 26.2725 16.016L26.256 16.0323V16.0253L26.2443 16.0137C25.8562 15.1792 25.1742 14.5074 24.3322 14.1238L24.3158 14.1076L24.3275 14.0959C25.1718 13.7124 25.8515 13.0383 26.2396 12.2061L26.256 12.1898V12.1968L26.2678 12.2084C26.6558 13.0429 27.3379 13.7147 28.1798 14.0983L28.1963 14.1145L28.1846 14.1261Z" fill="#3772FF"/>
<path d="M8.8101 2.09904H4.58853V7.31297H1.14307V10.5975H4.58853V18.4172C4.58853 19.4842 4.60029 20.4396 4.62381 21.2834C4.64732 22.1295 4.87545 22.9571 5.31055 23.7683C5.80208 24.6609 6.5241 25.3118 7.47425 25.7232C8.4244 26.1347 9.49919 26.3555 10.701 26.3834C11.9028 26.4113 13.1305 26.3113 14.384 26.0789V22.5712C13.1987 22.7455 12.145 22.792 11.2184 22.7107C10.2918 22.6293 9.61914 22.2411 9.1958 21.5461C8.97238 21.1881 8.85243 20.7232 8.83597 20.156C8.81951 19.5888 8.8101 18.9286 8.8101 18.1755V10.5975H14.384V7.31297H8.8101V2.09904Z" fill="#23262F"/>
<path d="M53.3117 8.65886C53.0859 8.45662 52.8507 8.26136 52.5991 8.0847C51.3738 7.22229 49.8592 6.78993 48.053 6.78993C46.2585 6.78993 44.6992 7.22229 43.3751 8.0847C42.051 8.9471 41.028 10.1233 40.306 11.6133C39.584 13.101 39.2241 14.7956 39.2241 16.6971C39.2241 18.573 39.5816 20.2606 40.2966 21.7553C41.0115 23.2499 42.0205 24.4308 43.321 25.3002C44.6216 26.1695 46.1456 26.6042 47.893 26.6042C49.744 26.6042 51.2985 26.1695 52.5521 25.3002C52.6297 25.2467 52.7049 25.1863 52.7802 25.1305V26.918C52.8037 27.8107 52.625 28.5545 52.244 29.1519C51.863 29.7493 51.3268 30.2003 50.6353 30.5071C49.9439 30.814 49.1583 30.9674 48.2787 30.9674C47.5285 30.9674 46.823 30.8023 46.1597 30.4723C45.4965 30.1422 44.9838 29.6354 44.6216 28.952L40.7175 30.8628C41.2091 31.7205 41.8441 32.4528 42.6155 33.0618C43.3892 33.6708 44.2594 34.1357 45.226 34.4611C46.1927 34.7866 47.204 34.947 48.2599 34.947C49.6899 34.947 50.9951 34.7564 52.1711 34.3728C53.3493 33.9916 54.3371 33.4081 55.1344 32.6271C55.9317 31.8461 56.4702 30.8465 56.7525 29.6284C56.8465 29.2124 56.9124 28.7846 56.9547 28.3523C56.9947 27.9176 57.0159 27.462 57.0159 26.9878V7.31295H53.307V8.65886H53.3117ZM51.2985 22.076C50.6 22.5921 49.6828 22.8501 48.5469 22.8501C47.4438 22.8501 46.536 22.5781 45.8211 22.0342C45.1061 21.4903 44.5746 20.7511 44.2289 19.8189C43.8831 18.8868 43.7115 17.8454 43.7115 16.6994C43.7115 15.565 43.8878 14.5306 44.2383 13.5962C44.591 12.664 45.1343 11.9225 45.8728 11.3716C46.6113 10.8207 47.5497 10.5464 48.6856 10.5464C49.7628 10.5464 50.6424 10.8044 51.322 11.3204C52.0017 11.8365 52.5027 12.5548 52.8249 13.4753C53.1471 14.3958 53.3094 15.4721 53.3094 16.6994C53.3094 17.9151 53.1471 18.9867 52.8249 19.9142C52.505 20.8394 51.9947 21.56 51.2985 22.076Z" fill="#23262F"/>
<path d="M75.5274 8.15443C74.1492 7.24554 72.4771 6.78993 70.5086 6.78993C68.6459 6.78993 67.0043 7.20602 65.5861 8.04053C64.168 8.87504 63.0603 10.0466 62.263 11.5599C61.4657 13.0708 61.0682 14.8537 61.0682 16.904C61.0682 18.8054 61.4751 20.4837 62.2912 21.9435C63.1049 23.4033 64.2409 24.5447 65.6943 25.3676C67.1478 26.1905 68.8364 26.6019 70.7579 26.6019C72.5876 26.6019 74.2598 26.1323 75.7767 25.1932C77.2937 24.2541 78.4178 22.9408 79.1446 21.2485L74.9606 19.9979C74.549 20.8673 73.9681 21.5298 73.2108 21.9877C72.4559 22.4456 71.5551 22.6734 70.5109 22.6734C68.8928 22.6734 67.6628 22.1528 66.8185 21.109C66.1553 20.2908 65.7578 19.2052 65.6144 17.8593H75.1511H77.2795H79.3539C79.5185 15.6115 79.2669 13.6589 78.5989 12.0039C77.9287 10.3488 76.9056 9.06565 75.5274 8.15443ZM70.6826 10.458C72.2184 10.458 73.3425 10.9276 74.0575 11.8667C74.5655 12.5315 74.8901 13.4799 75.0453 14.7003H65.7131C65.906 13.6171 66.2729 12.7314 66.8138 12.0503C67.6581 10.988 68.9493 10.458 70.6826 10.458Z" fill="#23262F"/>
<path d="M89.0224 2.09904H84.8032V7.31297H81.3577V10.5975H84.8032V18.4172C84.8032 19.4842 84.815 20.4396 84.8385 21.2834C84.862 22.1295 85.0901 22.9571 85.5252 23.7683C86.0167 24.6609 86.7388 25.3118 87.6889 25.7232C88.6391 26.1347 89.7139 26.3555 90.9157 26.3834C92.1174 26.4113 93.3451 26.3113 94.5986 26.0789V22.5712C93.4133 22.7455 92.3597 22.792 91.4331 22.7107C90.5064 22.6293 89.8338 22.2411 89.4105 21.5461C89.187 21.1881 89.0671 20.7232 89.0506 20.156C89.0342 19.5888 89.0248 18.9286 89.0248 18.1755V10.5975H94.5986V7.31297H89.0248V2.09904H89.0224Z" fill="#23262F"/>
<path d="M115.678 11.5343C115.42 10.7231 115.022 9.95829 114.484 9.24002C113.945 8.52174 113.218 7.9313 112.303 7.4664C111.389 7.00382 110.229 6.77136 108.823 6.77136C107.04 6.77136 105.54 7.15724 104.321 7.92666C103.667 8.34042 103.101 8.83322 102.616 9.39808V1.05534H98.8367V26.0812H103.127V16.4368C103.127 15.2908 103.256 14.3493 103.512 13.6125C103.771 12.8779 104.112 12.2968 104.54 11.876C104.968 11.453 105.445 11.1554 105.972 10.9811C106.499 10.8067 107.033 10.7207 107.572 10.7207C108.58 10.7207 109.38 10.9346 109.97 11.3646C110.563 11.7923 111.008 12.3409 111.306 13.0081C111.605 13.6752 111.795 14.3656 111.878 15.0839C111.96 15.8022 112 16.4577 112 17.0481V26.0859H116.29V15.6023C116.29 15.149 116.252 14.5632 116.175 13.8379C116.104 13.115 115.935 12.3456 115.678 11.5343Z" fill="#23262F"/>
<path d="M131.73 7.31298C131.167 7.22 130.587 7.19443 129.989 7.23395C129.392 7.27579 128.809 7.38504 128.239 7.56403C127.67 7.74302 127.153 7.98942 126.682 8.30323C126.132 8.64029 125.659 9.06568 125.267 9.58172C125.088 9.8165 124.928 10.0629 124.782 10.3186V7.31298H121.038V26.0812H125.293V16.5414C125.293 15.8231 125.38 15.1536 125.556 14.5353C125.732 13.9146 126.005 13.3614 126.374 12.8756C126.744 12.3898 127.221 11.9899 127.807 11.6761C128.392 11.3274 129.051 11.1252 129.785 11.0671C130.516 11.009 131.165 11.0624 131.727 11.2228V7.31298H131.73Z" fill="#23262F"/>
<path d="M158.947 7.31299H153.954L149.752 13.308L145.481 7.31299H140.488L147.292 16.5925L140.347 26.0812H145.34L149.752 19.8771L154.131 26.0812H159.124L152.143 16.5925L158.947 7.31299Z" fill="#23262F"/>
<path d="M169.771 20.7441L164.47 7.31299H160.055L167.732 25.9511L164.611 34.424H168.583L179.169 7.31299H174.931L169.771 20.7441Z" fill="#23262F"/>
<path d="M196.857 7.31299H181.227V10.9788H190.262L180.206 25.5071V26.0812H196.436V22.4155H186.836L196.857 7.90342V7.31299Z" fill="#23262F"/>
<path d="M134.284 23.2058L134.267 23.1895V23.1779L134.244 23.2011C133.658 24.4587 132.633 25.4699 131.36 26.051L131.344 26.0673L131.367 26.0905C132.64 26.6693 133.663 27.6828 134.251 28.9404L134.267 28.9566V28.9683L134.291 28.945C134.876 27.6875 135.902 26.6763 137.174 26.0952L137.191 26.0789L137.167 26.0556C135.895 25.4745 134.869 24.4633 134.284 23.2058Z" fill="#3772FF"/>
</svg>
