<svg width="233" height="41" viewBox="0 0 233 41" fill="none" xmlns="http://www.w3.org/2000/svg">
<path d="M38.1239 14.3461H41.0498C40.4674 12.8462 39.5742 11.4349 38.3479 10.2255C36.3207 8.22191 33.7504 7.09282 31.1045 6.82715V7.4083C31.1073 11.2356 34.2544 14.3461 38.1239 14.3461Z" fill="#3772FF"/>
<path d="M21.6681 16.7373H18.1011C17.5271 20.3404 18.633 24.1567 21.4442 26.9351C23.4713 28.9387 26.0416 30.0678 28.6875 30.3335V23.6751C28.6847 19.8506 25.5376 16.7373 21.6681 16.7373Z" fill="#3772FF"/>
<path d="M38.124 16.7372C32.919 16.7372 28.6855 12.5529 28.6855 7.4083V6.82715C26.0396 7.09282 23.4693 8.22191 21.4422 10.2255C20.2186 11.4349 19.3226 12.8462 18.7402 14.3461H21.6661C26.8712 14.3461 31.1046 18.5304 31.1046 23.675V30.3333C33.7506 30.0677 36.3209 28.9386 38.348 26.935C41.1591 24.1565 42.2651 20.3431 41.6911 16.7372H38.124ZM32.1938 15.561C31.1886 16.0176 30.3795 16.8202 29.9175 17.8109L29.8979 17.8303V17.822L29.8839 17.8081C29.4219 16.8147 28.6099 16.0149 27.6076 15.5583L27.588 15.5389L27.602 15.5251C28.6071 15.0684 29.4163 14.2659 29.8783 13.2752L29.8979 13.2558V13.2641L29.9119 13.2779C30.3739 14.2714 31.1858 15.0712 32.1882 15.5278L32.2078 15.5472L32.1938 15.561Z" fill="#3772FF"/>
<path d="M9.12772 1.24243H4.10187V7.44968H0V11.36H4.10187V20.6695C4.10187 21.9397 4.11587 23.0771 4.14387 24.0817C4.17187 25.089 4.44346 26.0742 4.96145 27.04C5.54663 28.1027 6.4062 28.8776 7.53737 29.3674C8.66853 29.8572 9.94809 30.1201 11.3788 30.1533C12.8096 30.1865 14.2712 30.0675 15.7635 29.7908V25.6148C14.3524 25.8224 13.098 25.8777 11.9948 25.7809C10.8917 25.684 10.0909 25.2218 9.5869 24.3944C9.32091 23.9682 9.17812 23.4147 9.15852 22.7395C9.13892 22.0643 9.12772 21.2783 9.12772 20.3817V11.36H15.7635V7.44968H9.12772V1.24243Z" fill="white"/>
<path d="M62.1074 9.05213C61.8386 8.81137 61.5586 8.57891 61.259 8.36858C59.8003 7.34188 57.9972 6.82715 55.8468 6.82715C53.7105 6.82715 51.8541 7.34188 50.2778 8.36858C48.7014 9.39528 47.4835 10.7956 46.6239 12.5695C45.7643 14.3406 45.3359 16.358 45.3359 18.6218C45.3359 20.855 45.7615 22.8642 46.6127 24.6436C47.4639 26.423 48.665 27.8289 50.2134 28.8639C51.7617 29.8989 53.5761 30.4164 55.6564 30.4164C57.86 30.4164 59.7107 29.8989 61.2031 28.8639C61.2954 28.8002 61.385 28.7283 61.4746 28.6618V30.79C61.5026 31.8526 61.2899 32.7382 60.8363 33.4494C60.3827 34.1606 59.7443 34.6975 58.9211 35.0628C58.0979 35.4281 57.1628 35.6108 56.1156 35.6108C55.2224 35.6108 54.3825 35.4143 53.5929 35.0213C52.8033 34.6283 52.1929 34.025 51.7617 33.2114L47.1139 35.4862C47.6991 36.5074 48.455 37.3791 49.3734 38.1042C50.2946 38.8292 51.3306 39.3827 52.4813 39.7701C53.6321 40.1576 54.836 40.3485 56.0932 40.3485C57.7956 40.3485 59.3495 40.1216 60.7495 39.665C62.1522 39.2111 63.3282 38.5165 64.2774 37.5867C65.2265 36.6568 65.8677 35.4669 66.2037 34.0167C66.3157 33.5214 66.3941 33.0122 66.4445 32.4974C66.4921 31.9799 66.5173 31.4375 66.5173 30.873V7.44981H62.1018V9.05213H62.1074ZM59.7107 25.0255C58.8791 25.6399 57.7872 25.947 56.4348 25.947C55.1216 25.947 54.0409 25.6233 53.1897 24.9757C52.3385 24.3281 51.7057 23.4481 51.2942 22.3384C50.8826 21.2286 50.6782 19.9888 50.6782 18.6245C50.6782 17.274 50.8882 16.0426 51.3054 14.9301C51.7253 13.8203 52.3721 12.9375 53.2513 12.2817C54.1305 11.6258 55.2476 11.2992 56.6 11.2992C57.8824 11.2992 58.9295 11.6064 59.7387 12.2208C60.5479 12.8351 61.1443 13.6903 61.5278 14.7862C61.9114 15.882 62.1046 17.1633 62.1046 18.6245C62.1046 20.0719 61.9114 21.3476 61.5278 22.4518C61.1471 23.5532 60.5395 24.4111 59.7107 25.0255Z" fill="white"/>
<path d="M88.5547 8.45161C86.9139 7.36956 84.9232 6.82715 82.5797 6.82715C80.3621 6.82715 78.4078 7.32251 76.7195 8.316C75.0311 9.3095 73.7123 10.7043 72.7632 12.5058C71.814 14.3046 71.3408 16.4272 71.3408 18.8681C71.3408 21.1318 71.8252 23.1298 72.7968 24.8677C73.7655 26.6057 75.1179 27.9645 76.8482 28.9441C78.5786 29.9238 80.5889 30.4136 82.8765 30.4136C85.0548 30.4136 87.0455 29.8546 88.8515 28.7366C90.6574 27.6185 91.9958 26.055 92.861 24.0403L87.8799 22.5514C87.3899 23.5864 86.6983 24.3752 85.7968 24.9203C84.898 25.4655 83.8256 25.7367 82.5825 25.7367C80.6561 25.7367 79.1918 25.1168 78.1866 23.8743C77.397 22.9001 76.9238 21.6078 76.753 20.0054H88.1067H90.6406H93.1101C93.3061 17.3294 93.0066 15.0048 92.2114 13.0344C91.4134 11.064 90.1954 9.53642 88.5547 8.45161ZM82.7869 11.1941C84.6152 11.1941 85.9536 11.7531 86.8047 12.8711C87.4095 13.6626 87.7959 14.7917 87.9807 16.2446H76.8706C77.1002 14.955 77.537 13.9006 78.181 13.0897C79.1862 11.8251 80.7233 11.1941 82.7869 11.1941Z" fill="white"/>
<path d="M104.622 1.24243H99.5989V7.44968H95.4971V11.36H99.5989V20.6695C99.5989 21.9397 99.6129 23.0771 99.6409 24.0817C99.6689 25.089 99.9405 26.0742 100.459 27.04C101.044 28.1027 101.903 28.8776 103.034 29.3674C104.166 29.8572 105.445 30.1201 106.876 30.1533C108.307 30.1865 109.768 30.0675 111.261 29.7908V25.6148C109.849 25.8224 108.595 25.8777 107.492 25.7809C106.389 25.684 105.588 25.2218 105.084 24.3944C104.818 23.9682 104.675 23.4147 104.656 22.7395C104.636 22.0643 104.625 21.2783 104.625 20.3817V11.36H111.261V7.44968H104.625V1.24243H104.622Z" fill="white"/>
<path d="M136.356 12.4754C136.048 11.5096 135.575 10.5991 134.934 9.74397C134.292 8.88885 133.427 8.18593 132.338 7.63246C131.249 7.08175 129.868 6.80501 128.194 6.80501C126.072 6.80501 124.285 7.26439 122.835 8.1804C122.057 8.67299 121.382 9.25968 120.805 9.93216V0H116.306V29.7937H121.413V18.3118C121.413 16.9475 121.567 15.8267 121.872 14.9494C122.18 14.0749 122.586 13.3831 123.095 12.8822C123.605 12.3785 124.173 12.0243 124.801 11.8167C125.428 11.6092 126.063 11.5068 126.705 11.5068C127.906 11.5068 128.858 11.7614 129.56 12.2734C130.266 12.7826 130.795 13.4357 131.151 14.2299C131.506 15.0241 131.733 15.8461 131.831 16.7012C131.929 17.5563 131.977 18.3367 131.977 19.0396V29.7992H137.084V17.3183C137.084 16.7787 137.039 16.0813 136.947 15.2179C136.863 14.3572 136.661 13.4412 136.356 12.4754Z" fill="white"/>
<path d="M155.465 7.44991C154.796 7.33921 154.104 7.30877 153.393 7.35582C152.682 7.40563 151.987 7.5357 151.31 7.74879C150.632 7.96188 150.016 8.25522 149.456 8.62882C148.801 9.03009 148.238 9.53652 147.771 10.1509C147.558 10.4304 147.367 10.7237 147.194 11.0281V7.44991H142.736V29.7938H147.801V18.4364C147.801 17.5813 147.905 16.7843 148.115 16.0482C148.325 15.3093 148.65 14.6507 149.089 14.0723C149.529 13.4939 150.097 13.0179 150.794 12.6443C151.492 12.2292 152.276 11.9884 153.149 11.9192C154.02 11.8501 154.793 11.9137 155.462 12.1047V7.44991H155.465Z" fill="white"/>
<path d="M187.867 7.44971H181.923L176.92 14.5868L171.835 7.44971H165.891L173.991 18.4971L165.723 29.7936H171.667L176.92 22.4074L182.133 29.7936H188.077L179.767 18.4971L187.867 7.44971Z" fill="white"/>
<path d="M200.754 23.4397L194.443 7.44971H189.188L198.326 29.6386L194.611 39.7258H199.34L211.942 7.44971H206.897L200.754 23.4397Z" fill="white"/>
<path d="M233 7.44971H214.392V11.8139H225.149L213.177 29.1101V29.7936H232.499V25.4294H221.07L233 8.15262V7.44971Z" fill="white"/>
<path d="M158.507 26.3704L158.487 26.351V26.3372L158.459 26.3648C157.762 27.862 156.541 29.0658 155.026 29.7576L155.007 29.777L155.035 29.8047C156.55 30.4938 157.768 31.7004 158.468 33.1975L158.487 33.2169V33.2307L158.515 33.203C159.212 31.7059 160.433 30.5021 161.948 29.8102L161.967 29.7909L161.939 29.7632C160.425 29.0713 159.204 27.8675 158.507 26.3704Z" fill="#3772FF"/>
</svg>
